%TF.GenerationSoftware,KiCad,Pcbnew,7.0.7*%
%TF.CreationDate,2023-10-01T22:00:11-07:00*%
%TF.ProjectId,v1,76312e6b-6963-4616-945f-706362585858,0*%
%TF.SameCoordinates,Original*%
%TF.FileFunction,Copper,L2,Bot*%
%TF.FilePolarity,Positive*%
%FSLAX46Y46*%
G04 Gerber Fmt 4.6, Leading zero omitted, Abs format (unit mm)*
G04 Created by KiCad (PCBNEW 7.0.7) date 2023-10-01 22:00:11*
%MOMM*%
%LPD*%
G01*
G04 APERTURE LIST*
%TA.AperFunction,ComponentPad*%
%ADD10R,1.700000X1.700000*%
%TD*%
%TA.AperFunction,ComponentPad*%
%ADD11O,1.700000X1.700000*%
%TD*%
%TA.AperFunction,ComponentPad*%
%ADD12C,1.400000*%
%TD*%
%TA.AperFunction,ComponentPad*%
%ADD13O,1.400000X1.400000*%
%TD*%
%TA.AperFunction,ComponentPad*%
%ADD14R,1.800000X1.800000*%
%TD*%
%TA.AperFunction,ComponentPad*%
%ADD15C,1.800000*%
%TD*%
%TA.AperFunction,ComponentPad*%
%ADD16C,1.778000*%
%TD*%
%TA.AperFunction,ComponentPad*%
%ADD17C,2.286000*%
%TD*%
%TA.AperFunction,ComponentPad*%
%ADD18C,1.700000*%
%TD*%
%TA.AperFunction,ViaPad*%
%ADD19C,0.800000*%
%TD*%
%TA.AperFunction,Conductor*%
%ADD20C,0.250000*%
%TD*%
G04 APERTURE END LIST*
D10*
%TO.P,J2,1,Pin_1*%
%TO.N,Net-(J2-Pin_1)*%
X108460000Y-78230000D03*
D11*
%TO.P,J2,2,Pin_2*%
%TO.N,Net-(J2-Pin_2)*%
X111000000Y-78230000D03*
%TO.P,J2,3,Pin_3*%
%TO.N,GND*%
X113540000Y-78230000D03*
%TD*%
D12*
%TO.P,R1,1*%
%TO.N,Net-(D1-A)*%
X66000000Y-78000000D03*
D13*
%TO.P,R1,2*%
%TO.N,GND*%
X71080000Y-78000000D03*
%TD*%
D14*
%TO.P,TB1,1,D1/TX*%
%TO.N,unconnected-(TB1-D1{slash}TX-Pad1)*%
X77222500Y-78380000D03*
D15*
%TO.P,TB1,2,D0/RX*%
%TO.N,unconnected-(TB1-D0{slash}RX-Pad2)*%
X77222500Y-80920000D03*
%TO.P,TB1,3,RESET*%
%TO.N,unconnected-(TB1-RESET-Pad28)*%
X77222500Y-83460000D03*
%TO.P,TB1,4,COM/GND*%
%TO.N,GND*%
X77222500Y-86000000D03*
%TO.P,TB1,5,D2*%
%TO.N,Net-(D1-RK)*%
X77222500Y-88540000D03*
%TO.P,TB1,6,D3*%
%TO.N,Net-(D1-GK)*%
X77222500Y-91080000D03*
%TO.P,TB1,7,D4*%
%TO.N,Net-(D1-BK)*%
X77222500Y-93620000D03*
%TO.P,TB1,8,D5*%
%TO.N,Net-(D2-RK)*%
X77222500Y-96160000D03*
%TO.P,TB1,9,D6*%
%TO.N,Net-(D2-GK)*%
X77222500Y-98700000D03*
%TO.P,TB1,10,D7*%
%TO.N,Net-(D2-BK)*%
X77222500Y-101240000D03*
%TO.P,TB1,11,D8*%
%TO.N,unconnected-(TB1-D8-Pad11)*%
X77222500Y-103780000D03*
%TO.P,TB1,12,D9*%
%TO.N,Net-(TB1-D9)*%
X77222500Y-106320000D03*
%TO.P,TB1,13,D10*%
%TO.N,Net-(TB1-D10)*%
X77222500Y-108860000D03*
%TO.P,TB1,14,D11/MOSI*%
%TO.N,Net-(TB1-D11{slash}MOSI)*%
X77222500Y-111400000D03*
%TO.P,TB1,15,D12/MISO*%
%TO.N,Net-(TB1-D12{slash}MISO)*%
X77222500Y-113940000D03*
%TO.P,TB1,16,D13/SCK*%
%TO.N,Net-(TB1-D13{slash}SCK)*%
X92462500Y-113940000D03*
%TO.P,TB1,17,3V3*%
%TO.N,Net-(TB1-3V3)*%
X92462500Y-111400000D03*
%TO.P,TB1,18,AREF*%
%TO.N,unconnected-(TB1-AREF-Pad18)*%
X92462500Y-108860000D03*
%TO.P,TB1,19,A0*%
%TO.N,Net-(J1-Pin_3)*%
X92462500Y-106320000D03*
%TO.P,TB1,20,A1*%
%TO.N,Net-(J1-Pin_4)*%
X92462500Y-103780000D03*
%TO.P,TB1,21,A2*%
%TO.N,unconnected-(TB1-A2-Pad21)*%
X92462500Y-101240000D03*
%TO.P,TB1,22,A3*%
%TO.N,unconnected-(TB1-A3-Pad22)*%
X92462500Y-98700000D03*
%TO.P,TB1,23,A4*%
%TO.N,unconnected-(TB1-A4-Pad23)*%
X92462500Y-96160000D03*
%TO.P,TB1,24,A5*%
%TO.N,unconnected-(TB1-A5-Pad24)*%
X92462500Y-93620000D03*
%TO.P,TB1,25,A6*%
%TO.N,unconnected-(TB1-A6-Pad25)*%
X92462500Y-91080000D03*
%TO.P,TB1,26,A7*%
%TO.N,unconnected-(TB1-A7-Pad26)*%
X92462500Y-88540000D03*
%TO.P,TB1,27,+5V*%
%TO.N,Net-(J1-Pin_5)*%
X92462500Y-86000000D03*
%TO.P,TB1,28,RESET*%
%TO.N,unconnected-(TB1-RESET-Pad28)*%
X92462500Y-83460000D03*
%TO.P,TB1,29,COM/GND*%
%TO.N,GND*%
X92462500Y-80920000D03*
%TO.P,TB1,30,VIN*%
%TO.N,Net-(J2-Pin_1)*%
X92462500Y-78380000D03*
%TD*%
D16*
%TO.P,U2,B1A,SEL+*%
%TO.N,Net-(J1-Pin_2)*%
X112650000Y-88920000D03*
%TO.P,U2,B1B*%
%TO.N,N/C*%
X119000000Y-88920000D03*
%TO.P,U2,B2A,SEL-*%
%TO.N,GND*%
X112650000Y-94000000D03*
%TO.P,U2,B2B*%
%TO.N,N/C*%
X119000000Y-94000000D03*
%TO.P,U2,H1,H+*%
%TO.N,Net-(J1-Pin_5)*%
X113285000Y-111780000D03*
%TO.P,U2,H2,H*%
%TO.N,Net-(J1-Pin_3)*%
X115825000Y-111780000D03*
%TO.P,U2,H3,H-*%
%TO.N,GND*%
X118365000Y-111780000D03*
D17*
%TO.P,U2,S1,SHIELD*%
%TO.N,unconnected-(U2-SHIELD-PadS1)*%
X108205000Y-94952500D03*
%TO.P,U2,S2,SHIELD*%
X108205000Y-108287500D03*
%TO.P,U2,S3,SHIELD*%
X123445000Y-108287500D03*
%TO.P,U2,S4,SHIELD*%
X123445000Y-94952500D03*
D16*
%TO.P,U2,V1,V+*%
%TO.N,Net-(J1-Pin_5)*%
X105665000Y-99080000D03*
%TO.P,U2,V2,V*%
%TO.N,Net-(J1-Pin_4)*%
X105665000Y-101620000D03*
%TO.P,U2,V3,V-*%
%TO.N,GND*%
X105665000Y-104160000D03*
%TD*%
D10*
%TO.P,J4,1,Pin_1*%
%TO.N,Net-(J2-Pin_2)*%
X114000000Y-73000000D03*
%TD*%
%TO.P,J1,1,Pin_1*%
%TO.N,GND*%
X130000000Y-77920000D03*
D11*
%TO.P,J1,2,Pin_2*%
%TO.N,Net-(J1-Pin_2)*%
X130000000Y-80460000D03*
%TO.P,J1,3,Pin_3*%
%TO.N,Net-(J1-Pin_3)*%
X130000000Y-83000000D03*
%TO.P,J1,4,Pin_4*%
%TO.N,Net-(J1-Pin_4)*%
X130000000Y-85540000D03*
%TO.P,J1,5,Pin_5*%
%TO.N,Net-(J1-Pin_5)*%
X130000000Y-88080000D03*
%TD*%
D12*
%TO.P,R2,1*%
%TO.N,Net-(D2-A)*%
X66000000Y-74000000D03*
D13*
%TO.P,R2,2*%
%TO.N,GND*%
X71080000Y-74000000D03*
%TD*%
D14*
%TO.P,D1,1,BK*%
%TO.N,Net-(D1-BK)*%
X54462500Y-87240000D03*
D15*
%TO.P,D1,2,GK*%
%TO.N,Net-(D1-GK)*%
X54462500Y-85081000D03*
%TO.P,D1,3,A*%
%TO.N,Net-(D1-A)*%
X54462500Y-82922000D03*
%TO.P,D1,4,RK*%
%TO.N,Net-(D1-RK)*%
X54462500Y-80763000D03*
%TD*%
D10*
%TO.P,J3,1,Pin_1*%
%TO.N,Net-(J2-Pin_1)*%
X108000000Y-73000000D03*
%TD*%
D14*
%TO.P,D2,1,BK*%
%TO.N,Net-(D2-BK)*%
X54462500Y-97399000D03*
D15*
%TO.P,D2,2,GK*%
%TO.N,Net-(D2-GK)*%
X54462500Y-95240000D03*
%TO.P,D2,3,A*%
%TO.N,Net-(D2-A)*%
X54462500Y-93081000D03*
%TO.P,D2,4,RK*%
%TO.N,Net-(D2-RK)*%
X54462500Y-90922000D03*
%TD*%
D10*
%TO.P,U1,1,GND*%
%TO.N,GND*%
X44460000Y-103375000D03*
D18*
%TO.P,U1,2,VCC*%
%TO.N,Net-(TB1-3V3)*%
X47000000Y-103375000D03*
%TO.P,U1,3,CE*%
%TO.N,Net-(TB1-D9)*%
X44460000Y-105915000D03*
%TO.P,U1,4,~{CSN}*%
%TO.N,Net-(TB1-D10)*%
X47000000Y-105915000D03*
%TO.P,U1,5,SCK*%
%TO.N,Net-(TB1-D13{slash}SCK)*%
X44460000Y-108455000D03*
%TO.P,U1,6,MOSI*%
%TO.N,Net-(TB1-D11{slash}MOSI)*%
X47000000Y-108455000D03*
%TO.P,U1,7,MISO*%
%TO.N,Net-(TB1-D12{slash}MISO)*%
X44460000Y-110995000D03*
%TO.P,U1,8,IRQ*%
%TO.N,unconnected-(U1-IRQ-Pad8)*%
X47000000Y-110995000D03*
%TD*%
D19*
%TO.N,Net-(TB1-3V3)*%
X50000000Y-104000000D03*
%TO.N,Net-(J1-Pin_5)*%
X101000000Y-99000000D03*
X111000000Y-92000000D03*
%TD*%
D20*
%TO.N,GND*%
X70000000Y-86000000D02*
X71000000Y-86000000D01*
X44208750Y-100000000D02*
X61000000Y-100000000D01*
X61000000Y-100000000D02*
X66000000Y-95000000D01*
X66000000Y-95000000D02*
X66000000Y-90000000D01*
X66000000Y-90000000D02*
X70000000Y-86000000D01*
X43460000Y-100748750D02*
X44208750Y-100000000D01*
X43460000Y-103375000D02*
X43460000Y-100748750D01*
X71000000Y-86000000D02*
X74000000Y-86000000D01*
X71080000Y-74000000D02*
X74000000Y-76920000D01*
X71080000Y-78000000D02*
X71080000Y-85920000D01*
X74000000Y-76920000D02*
X74000000Y-86000000D01*
X74000000Y-86000000D02*
X77222500Y-86000000D01*
X71080000Y-85920000D02*
X71000000Y-86000000D01*
%TO.N,Net-(TB1-3V3)*%
X50000000Y-104000000D02*
X62000000Y-116000000D01*
X62000000Y-116000000D02*
X83000000Y-116000000D01*
X87600000Y-111400000D02*
X92462500Y-111400000D01*
X83000000Y-116000000D02*
X87600000Y-111400000D01*
%TO.N,unconnected-(TB1-RESET-Pad28)*%
X77222500Y-83460000D02*
X92462500Y-83460000D01*
%TO.N,Net-(J1-Pin_4)*%
X105665000Y-101620000D02*
X104451000Y-100406000D01*
X104451000Y-86549000D02*
X105460000Y-85540000D01*
X105460000Y-85540000D02*
X130000000Y-85540000D01*
X104451000Y-100406000D02*
X104451000Y-86549000D01*
%TO.N,unconnected-(U2-SHIELD-PadS1)*%
X109348000Y-96095500D02*
X122302000Y-96095500D01*
X123445000Y-94952500D02*
X123445000Y-108287500D01*
X108205000Y-108287500D02*
X108205000Y-94952500D01*
X122302000Y-96095500D02*
X123445000Y-94952500D01*
X108205000Y-94952500D02*
X109348000Y-96095500D01*
%TO.N,Net-(J1-Pin_5)*%
X126080000Y-92000000D02*
X130000000Y-88080000D01*
X99000000Y-101000000D02*
X99000000Y-108000000D01*
X111000000Y-92000000D02*
X126080000Y-92000000D01*
X102780000Y-111780000D02*
X113285000Y-111780000D01*
X101000000Y-99000000D02*
X99000000Y-101000000D01*
X99000000Y-108000000D02*
X102780000Y-111780000D01*
%TD*%
%TA.AperFunction,Conductor*%
%TO.N,GND*%
G36*
X91198188Y-84105185D02*
G01*
X91234958Y-84141679D01*
X91353516Y-84323147D01*
X91353519Y-84323151D01*
X91353521Y-84323153D01*
X91510716Y-84493913D01*
X91688318Y-84632146D01*
X91729131Y-84688856D01*
X91732806Y-84758629D01*
X91698175Y-84819312D01*
X91688319Y-84827852D01*
X91510718Y-84966085D01*
X91353516Y-85136852D01*
X91226575Y-85331151D01*
X91133342Y-85543699D01*
X91076366Y-85768691D01*
X91076364Y-85768702D01*
X91057200Y-85999993D01*
X91057200Y-86000006D01*
X91076364Y-86231297D01*
X91076366Y-86231308D01*
X91133342Y-86456300D01*
X91226575Y-86668848D01*
X91353516Y-86863147D01*
X91353519Y-86863151D01*
X91353521Y-86863153D01*
X91510716Y-87033913D01*
X91688318Y-87172146D01*
X91729131Y-87228856D01*
X91732806Y-87298629D01*
X91698175Y-87359312D01*
X91688319Y-87367852D01*
X91510718Y-87506085D01*
X91353516Y-87676852D01*
X91226575Y-87871151D01*
X91133342Y-88083699D01*
X91076366Y-88308691D01*
X91076364Y-88308702D01*
X91057200Y-88539993D01*
X91057200Y-88540006D01*
X91076364Y-88771297D01*
X91076366Y-88771308D01*
X91133342Y-88996300D01*
X91226575Y-89208848D01*
X91353516Y-89403147D01*
X91353519Y-89403151D01*
X91353521Y-89403153D01*
X91510716Y-89573913D01*
X91510719Y-89573915D01*
X91510722Y-89573918D01*
X91688318Y-89712147D01*
X91729131Y-89768857D01*
X91732806Y-89838630D01*
X91698174Y-89899313D01*
X91688318Y-89907853D01*
X91510722Y-90046081D01*
X91510719Y-90046084D01*
X91353516Y-90216852D01*
X91226575Y-90411151D01*
X91133342Y-90623699D01*
X91076366Y-90848691D01*
X91076364Y-90848702D01*
X91057200Y-91079993D01*
X91057200Y-91080006D01*
X91076364Y-91311297D01*
X91076366Y-91311308D01*
X91133342Y-91536300D01*
X91226575Y-91748848D01*
X91353516Y-91943147D01*
X91353519Y-91943151D01*
X91353521Y-91943153D01*
X91510716Y-92113913D01*
X91510719Y-92113915D01*
X91510722Y-92113918D01*
X91688318Y-92252147D01*
X91729131Y-92308857D01*
X91732806Y-92378630D01*
X91698174Y-92439313D01*
X91688318Y-92447853D01*
X91510722Y-92586081D01*
X91510719Y-92586084D01*
X91510716Y-92586086D01*
X91510716Y-92586087D01*
X91472434Y-92627673D01*
X91353516Y-92756852D01*
X91226575Y-92951151D01*
X91133342Y-93163699D01*
X91076366Y-93388691D01*
X91076364Y-93388702D01*
X91057200Y-93619993D01*
X91057200Y-93620006D01*
X91076364Y-93851297D01*
X91076366Y-93851308D01*
X91133342Y-94076300D01*
X91226575Y-94288848D01*
X91353516Y-94483147D01*
X91353519Y-94483151D01*
X91353521Y-94483153D01*
X91510716Y-94653913D01*
X91510719Y-94653915D01*
X91510722Y-94653918D01*
X91688318Y-94792147D01*
X91729131Y-94848857D01*
X91732806Y-94918630D01*
X91698174Y-94979313D01*
X91688318Y-94987853D01*
X91510722Y-95126081D01*
X91510719Y-95126084D01*
X91510716Y-95126086D01*
X91510716Y-95126087D01*
X91473231Y-95166807D01*
X91353516Y-95296852D01*
X91226575Y-95491151D01*
X91133342Y-95703699D01*
X91076366Y-95928691D01*
X91076364Y-95928702D01*
X91057200Y-96159993D01*
X91057200Y-96160006D01*
X91076364Y-96391297D01*
X91076366Y-96391308D01*
X91133342Y-96616300D01*
X91226575Y-96828848D01*
X91353516Y-97023147D01*
X91353519Y-97023151D01*
X91353521Y-97023153D01*
X91510716Y-97193913D01*
X91510719Y-97193915D01*
X91510722Y-97193918D01*
X91688318Y-97332147D01*
X91729131Y-97388857D01*
X91732806Y-97458630D01*
X91698174Y-97519313D01*
X91688318Y-97527853D01*
X91510722Y-97666081D01*
X91510719Y-97666084D01*
X91353516Y-97836852D01*
X91226575Y-98031151D01*
X91133342Y-98243699D01*
X91076366Y-98468691D01*
X91076364Y-98468702D01*
X91057200Y-98699993D01*
X91057200Y-98700006D01*
X91076364Y-98931297D01*
X91076366Y-98931308D01*
X91133342Y-99156300D01*
X91226575Y-99368848D01*
X91353516Y-99563147D01*
X91353519Y-99563151D01*
X91353521Y-99563153D01*
X91510716Y-99733913D01*
X91510719Y-99733915D01*
X91510722Y-99733918D01*
X91688318Y-99872147D01*
X91729131Y-99928857D01*
X91732806Y-99998630D01*
X91698174Y-100059313D01*
X91688318Y-100067853D01*
X91510722Y-100206081D01*
X91510719Y-100206084D01*
X91353516Y-100376852D01*
X91226575Y-100571151D01*
X91133342Y-100783699D01*
X91076366Y-101008691D01*
X91076364Y-101008702D01*
X91057200Y-101239993D01*
X91057200Y-101240006D01*
X91076364Y-101471297D01*
X91076366Y-101471308D01*
X91133342Y-101696300D01*
X91226575Y-101908848D01*
X91353516Y-102103147D01*
X91353519Y-102103151D01*
X91353521Y-102103153D01*
X91510716Y-102273913D01*
X91510719Y-102273915D01*
X91510722Y-102273918D01*
X91688318Y-102412147D01*
X91729131Y-102468857D01*
X91732806Y-102538630D01*
X91698174Y-102599313D01*
X91688318Y-102607853D01*
X91510722Y-102746081D01*
X91510719Y-102746084D01*
X91353516Y-102916852D01*
X91226575Y-103111151D01*
X91133342Y-103323699D01*
X91076366Y-103548691D01*
X91076364Y-103548702D01*
X91057200Y-103779993D01*
X91057200Y-103780006D01*
X91076364Y-104011297D01*
X91076366Y-104011308D01*
X91133342Y-104236300D01*
X91226575Y-104448848D01*
X91353516Y-104643147D01*
X91353519Y-104643151D01*
X91353521Y-104643153D01*
X91510716Y-104813913D01*
X91510719Y-104813915D01*
X91510722Y-104813918D01*
X91688318Y-104952147D01*
X91729131Y-105008857D01*
X91732806Y-105078630D01*
X91698174Y-105139313D01*
X91688318Y-105147853D01*
X91510722Y-105286081D01*
X91510719Y-105286084D01*
X91510716Y-105286086D01*
X91510716Y-105286087D01*
X91473231Y-105326807D01*
X91353516Y-105456852D01*
X91226575Y-105651151D01*
X91133342Y-105863699D01*
X91076366Y-106088691D01*
X91076364Y-106088702D01*
X91057200Y-106319993D01*
X91057200Y-106320006D01*
X91076364Y-106551297D01*
X91076366Y-106551308D01*
X91133342Y-106776300D01*
X91226575Y-106988848D01*
X91353516Y-107183147D01*
X91353519Y-107183151D01*
X91353521Y-107183153D01*
X91510716Y-107353913D01*
X91510719Y-107353915D01*
X91510722Y-107353918D01*
X91688318Y-107492147D01*
X91729131Y-107548857D01*
X91732806Y-107618630D01*
X91698174Y-107679313D01*
X91688318Y-107687853D01*
X91510722Y-107826081D01*
X91510719Y-107826084D01*
X91353516Y-107996852D01*
X91226575Y-108191151D01*
X91133342Y-108403699D01*
X91076366Y-108628691D01*
X91076364Y-108628702D01*
X91057200Y-108859993D01*
X91057200Y-108860006D01*
X91076364Y-109091297D01*
X91076366Y-109091308D01*
X91133342Y-109316300D01*
X91226575Y-109528848D01*
X91353516Y-109723147D01*
X91353519Y-109723151D01*
X91353521Y-109723153D01*
X91510716Y-109893913D01*
X91510719Y-109893915D01*
X91510722Y-109893918D01*
X91688318Y-110032147D01*
X91729131Y-110088857D01*
X91732806Y-110158630D01*
X91698174Y-110219313D01*
X91688318Y-110227853D01*
X91510722Y-110366081D01*
X91510719Y-110366084D01*
X91353516Y-110536852D01*
X91234958Y-110718321D01*
X91181811Y-110763678D01*
X91131149Y-110774500D01*
X87682737Y-110774500D01*
X87667120Y-110772776D01*
X87667093Y-110773062D01*
X87659331Y-110772327D01*
X87590203Y-110774500D01*
X87560650Y-110774500D01*
X87559929Y-110774590D01*
X87553757Y-110775369D01*
X87547945Y-110775826D01*
X87501372Y-110777290D01*
X87501369Y-110777291D01*
X87482126Y-110782881D01*
X87463083Y-110786825D01*
X87443204Y-110789336D01*
X87443203Y-110789337D01*
X87399878Y-110806490D01*
X87394352Y-110808382D01*
X87349608Y-110821383D01*
X87349604Y-110821385D01*
X87332365Y-110831580D01*
X87314898Y-110840137D01*
X87296269Y-110847512D01*
X87296267Y-110847513D01*
X87258564Y-110874906D01*
X87253682Y-110878112D01*
X87213580Y-110901828D01*
X87199408Y-110916000D01*
X87184623Y-110928628D01*
X87168412Y-110940407D01*
X87138709Y-110976310D01*
X87134776Y-110980631D01*
X84945909Y-113169500D01*
X82777228Y-115338181D01*
X82715905Y-115371666D01*
X82689547Y-115374500D01*
X78003994Y-115374500D01*
X77936955Y-115354815D01*
X77891200Y-115302011D01*
X77881256Y-115232853D01*
X77910281Y-115169297D01*
X77944976Y-115141445D01*
X77991126Y-115116470D01*
X78174284Y-114973913D01*
X78331479Y-114803153D01*
X78458424Y-114608849D01*
X78551657Y-114396300D01*
X78608634Y-114171305D01*
X78608635Y-114171297D01*
X78627800Y-113940006D01*
X78627800Y-113939993D01*
X78608635Y-113708702D01*
X78608633Y-113708691D01*
X78551657Y-113483699D01*
X78458424Y-113271151D01*
X78331483Y-113076852D01*
X78331480Y-113076849D01*
X78331479Y-113076847D01*
X78174284Y-112906087D01*
X77996680Y-112767853D01*
X77955868Y-112711143D01*
X77952193Y-112641370D01*
X77986824Y-112580687D01*
X77996681Y-112572146D01*
X78043800Y-112535472D01*
X78174284Y-112433913D01*
X78331479Y-112263153D01*
X78458424Y-112068849D01*
X78551657Y-111856300D01*
X78608634Y-111631305D01*
X78608635Y-111631297D01*
X78627800Y-111400006D01*
X78627800Y-111399993D01*
X78608635Y-111168702D01*
X78608633Y-111168691D01*
X78551657Y-110943699D01*
X78458424Y-110731151D01*
X78331483Y-110536852D01*
X78331480Y-110536849D01*
X78331479Y-110536847D01*
X78174284Y-110366087D01*
X77996680Y-110227853D01*
X77955868Y-110171143D01*
X77952193Y-110101370D01*
X77986824Y-110040687D01*
X77996681Y-110032146D01*
X78174284Y-109893913D01*
X78331479Y-109723153D01*
X78458424Y-109528849D01*
X78551657Y-109316300D01*
X78608634Y-109091305D01*
X78608635Y-109091297D01*
X78627800Y-108860006D01*
X78627800Y-108859993D01*
X78608635Y-108628702D01*
X78608633Y-108628691D01*
X78551657Y-108403699D01*
X78458424Y-108191151D01*
X78331483Y-107996852D01*
X78331480Y-107996849D01*
X78331479Y-107996847D01*
X78174284Y-107826087D01*
X78174279Y-107826083D01*
X78174277Y-107826081D01*
X77996681Y-107687852D01*
X77955868Y-107631142D01*
X77952193Y-107561369D01*
X77986825Y-107500686D01*
X77996665Y-107492158D01*
X78174284Y-107353913D01*
X78331479Y-107183153D01*
X78458424Y-106988849D01*
X78551657Y-106776300D01*
X78608634Y-106551305D01*
X78608635Y-106551297D01*
X78627800Y-106320006D01*
X78627800Y-106319993D01*
X78608635Y-106088702D01*
X78608633Y-106088691D01*
X78551657Y-105863699D01*
X78458424Y-105651151D01*
X78331483Y-105456852D01*
X78331480Y-105456849D01*
X78331479Y-105456847D01*
X78174284Y-105286087D01*
X78174279Y-105286083D01*
X78174277Y-105286081D01*
X77996681Y-105147852D01*
X77955868Y-105091142D01*
X77952193Y-105021369D01*
X77986825Y-104960686D01*
X77996665Y-104952158D01*
X78174284Y-104813913D01*
X78331479Y-104643153D01*
X78458424Y-104448849D01*
X78551657Y-104236300D01*
X78608634Y-104011305D01*
X78610147Y-103993046D01*
X78627800Y-103780006D01*
X78627800Y-103779993D01*
X78608635Y-103548702D01*
X78608633Y-103548691D01*
X78551657Y-103323699D01*
X78458424Y-103111151D01*
X78331483Y-102916852D01*
X78331480Y-102916849D01*
X78331479Y-102916847D01*
X78174284Y-102746087D01*
X77996680Y-102607853D01*
X77955868Y-102551143D01*
X77952193Y-102481370D01*
X77986824Y-102420687D01*
X77996681Y-102412146D01*
X78174284Y-102273913D01*
X78331479Y-102103153D01*
X78458424Y-101908849D01*
X78551657Y-101696300D01*
X78608634Y-101471305D01*
X78608635Y-101471297D01*
X78627800Y-101240006D01*
X78627800Y-101239993D01*
X78608635Y-101008702D01*
X78608633Y-101008691D01*
X78551657Y-100783699D01*
X78458424Y-100571151D01*
X78331483Y-100376852D01*
X78331480Y-100376849D01*
X78331479Y-100376847D01*
X78174284Y-100206087D01*
X77996680Y-100067853D01*
X77955868Y-100011143D01*
X77952193Y-99941370D01*
X77986824Y-99880687D01*
X77996681Y-99872146D01*
X78174284Y-99733913D01*
X78331479Y-99563153D01*
X78458424Y-99368849D01*
X78551657Y-99156300D01*
X78608634Y-98931305D01*
X78608635Y-98931297D01*
X78627800Y-98700006D01*
X78627800Y-98699993D01*
X78608635Y-98468702D01*
X78608633Y-98468691D01*
X78551657Y-98243699D01*
X78458424Y-98031151D01*
X78331483Y-97836852D01*
X78331480Y-97836849D01*
X78331479Y-97836847D01*
X78174284Y-97666087D01*
X77996680Y-97527853D01*
X77955868Y-97471143D01*
X77952193Y-97401370D01*
X77986824Y-97340687D01*
X77996681Y-97332146D01*
X78174284Y-97193913D01*
X78331479Y-97023153D01*
X78458424Y-96828849D01*
X78551657Y-96616300D01*
X78608634Y-96391305D01*
X78608635Y-96391297D01*
X78627800Y-96160006D01*
X78627800Y-96159993D01*
X78608635Y-95928702D01*
X78608633Y-95928691D01*
X78551657Y-95703699D01*
X78458424Y-95491151D01*
X78331483Y-95296852D01*
X78331480Y-95296849D01*
X78331479Y-95296847D01*
X78174284Y-95126087D01*
X77996680Y-94987853D01*
X77955868Y-94931143D01*
X77952193Y-94861370D01*
X77986824Y-94800687D01*
X77996681Y-94792146D01*
X77999843Y-94789685D01*
X78174284Y-94653913D01*
X78331479Y-94483153D01*
X78458424Y-94288849D01*
X78551657Y-94076300D01*
X78608634Y-93851305D01*
X78608635Y-93851297D01*
X78627800Y-93620006D01*
X78627800Y-93619993D01*
X78608635Y-93388702D01*
X78608633Y-93388691D01*
X78551657Y-93163699D01*
X78458424Y-92951151D01*
X78331483Y-92756852D01*
X78331480Y-92756849D01*
X78331479Y-92756847D01*
X78174284Y-92586087D01*
X77996680Y-92447853D01*
X77955868Y-92391143D01*
X77952193Y-92321370D01*
X77986824Y-92260687D01*
X77996681Y-92252146D01*
X78174284Y-92113913D01*
X78331479Y-91943153D01*
X78458424Y-91748849D01*
X78551657Y-91536300D01*
X78608634Y-91311305D01*
X78608635Y-91311297D01*
X78627800Y-91080006D01*
X78627800Y-91079993D01*
X78608635Y-90848702D01*
X78608633Y-90848691D01*
X78551657Y-90623699D01*
X78458424Y-90411151D01*
X78331483Y-90216852D01*
X78331480Y-90216849D01*
X78331479Y-90216847D01*
X78174284Y-90046087D01*
X77996680Y-89907853D01*
X77955868Y-89851143D01*
X77952193Y-89781370D01*
X77986824Y-89720687D01*
X77996681Y-89712146D01*
X78174284Y-89573913D01*
X78331479Y-89403153D01*
X78458424Y-89208849D01*
X78551657Y-88996300D01*
X78608634Y-88771305D01*
X78608635Y-88771297D01*
X78627800Y-88540006D01*
X78627800Y-88539993D01*
X78608635Y-88308702D01*
X78608633Y-88308691D01*
X78551657Y-88083699D01*
X78458424Y-87871151D01*
X78331483Y-87676852D01*
X78331480Y-87676849D01*
X78331479Y-87676847D01*
X78174284Y-87506087D01*
X78131357Y-87472675D01*
X77996273Y-87367535D01*
X77955460Y-87310825D01*
X77951786Y-87241052D01*
X77986418Y-87180369D01*
X77996274Y-87171828D01*
X78021298Y-87152351D01*
X77444557Y-86575610D01*
X77411072Y-86514287D01*
X77416056Y-86444595D01*
X77457928Y-86388662D01*
X77478430Y-86376212D01*
X77478857Y-86376007D01*
X77578298Y-86283740D01*
X77600533Y-86245226D01*
X77651096Y-86197014D01*
X77719703Y-86183789D01*
X77784568Y-86209756D01*
X77795600Y-86219547D01*
X78373686Y-86797634D01*
X78457984Y-86668606D01*
X78551182Y-86456135D01*
X78608138Y-86231218D01*
X78627298Y-86000005D01*
X78627298Y-85999994D01*
X78608138Y-85768781D01*
X78551182Y-85543864D01*
X78457983Y-85331390D01*
X78373686Y-85202364D01*
X77797684Y-85778367D01*
X77736361Y-85811852D01*
X77666669Y-85806868D01*
X77613055Y-85767998D01*
X77532035Y-85666400D01*
X77532033Y-85666399D01*
X77459775Y-85617134D01*
X77415473Y-85563106D01*
X77407415Y-85493702D01*
X77438157Y-85430959D01*
X77441946Y-85427000D01*
X78021299Y-84847647D01*
X77996275Y-84828171D01*
X77955461Y-84771461D01*
X77951786Y-84701688D01*
X77986416Y-84641004D01*
X77996260Y-84632473D01*
X78174284Y-84493913D01*
X78331479Y-84323153D01*
X78432568Y-84168425D01*
X78450042Y-84141679D01*
X78503189Y-84096322D01*
X78553851Y-84085500D01*
X91131149Y-84085500D01*
X91198188Y-84105185D01*
G37*
%TD.AperFunction*%
%TA.AperFunction,Conductor*%
G36*
X118209552Y-92645185D02*
G01*
X118255307Y-92697989D01*
X118265251Y-92767147D01*
X118236226Y-92830703D01*
X118218675Y-92847353D01*
X118055699Y-92974201D01*
X118055689Y-92974211D01*
X117899728Y-93143629D01*
X117773782Y-93336405D01*
X117681282Y-93547285D01*
X117624753Y-93770515D01*
X117605738Y-93999994D01*
X117605738Y-94000005D01*
X117624753Y-94229484D01*
X117681282Y-94452714D01*
X117773782Y-94663594D01*
X117899728Y-94856370D01*
X117899731Y-94856373D01*
X118055692Y-95025792D01*
X118169139Y-95114091D01*
X118236868Y-95166807D01*
X118237411Y-95167229D01*
X118366236Y-95236946D01*
X118415825Y-95286165D01*
X118430933Y-95354381D01*
X118406763Y-95419937D01*
X118350987Y-95462018D01*
X118307217Y-95470000D01*
X113341732Y-95470000D01*
X113274693Y-95450315D01*
X113228938Y-95397511D01*
X113218994Y-95328353D01*
X113248019Y-95264797D01*
X113282714Y-95236945D01*
X113412316Y-95166807D01*
X113412322Y-95166803D01*
X113440959Y-95144514D01*
X113440959Y-95144512D01*
X112872057Y-94575610D01*
X112838572Y-94514287D01*
X112843556Y-94444595D01*
X112885428Y-94388662D01*
X112905930Y-94376212D01*
X112906357Y-94376007D01*
X113005798Y-94283740D01*
X113028033Y-94245226D01*
X113078596Y-94197014D01*
X113147203Y-94183789D01*
X113212068Y-94209756D01*
X113223100Y-94219547D01*
X113793238Y-94789686D01*
X113875774Y-94663357D01*
X113968242Y-94452553D01*
X114024750Y-94229408D01*
X114024752Y-94229396D01*
X114043760Y-94000005D01*
X114043760Y-93999994D01*
X114024752Y-93770603D01*
X114024750Y-93770591D01*
X113968242Y-93547446D01*
X113875775Y-93336644D01*
X113793238Y-93210312D01*
X113225184Y-93778367D01*
X113163861Y-93811852D01*
X113094169Y-93806868D01*
X113040555Y-93767998D01*
X112959535Y-93666400D01*
X112959533Y-93666399D01*
X112887275Y-93617134D01*
X112842973Y-93563106D01*
X112834915Y-93493702D01*
X112865657Y-93430959D01*
X112869446Y-93427000D01*
X113440959Y-92855487D01*
X113440959Y-92855485D01*
X113430513Y-92847355D01*
X113389698Y-92790646D01*
X113386023Y-92720873D01*
X113420653Y-92660189D01*
X113482593Y-92627860D01*
X113506673Y-92625500D01*
X118142513Y-92625500D01*
X118209552Y-92645185D01*
G37*
%TD.AperFunction*%
%TA.AperFunction,Conductor*%
G36*
X133942539Y-69640185D02*
G01*
X133988294Y-69692989D01*
X133999500Y-69744500D01*
X133999500Y-118495500D01*
X133979815Y-118562539D01*
X133927011Y-118608294D01*
X133875500Y-118619500D01*
X34124500Y-118619500D01*
X34057461Y-118599815D01*
X34011706Y-118547011D01*
X34000500Y-118495500D01*
X34000500Y-115000000D01*
X36644341Y-115000000D01*
X36664936Y-115235403D01*
X36664938Y-115235413D01*
X36702206Y-115374500D01*
X36726097Y-115463663D01*
X36776031Y-115570745D01*
X36825964Y-115677828D01*
X36825965Y-115677830D01*
X36961505Y-115871402D01*
X37128597Y-116038494D01*
X37322169Y-116174034D01*
X37322171Y-116174035D01*
X37536337Y-116273903D01*
X37764592Y-116335063D01*
X37941034Y-116350500D01*
X38058966Y-116350500D01*
X38235408Y-116335063D01*
X38463663Y-116273903D01*
X38677829Y-116174035D01*
X38871401Y-116038495D01*
X39038495Y-115871401D01*
X39174035Y-115677830D01*
X39273903Y-115463663D01*
X39335063Y-115235408D01*
X39355659Y-115000000D01*
X39335063Y-114764592D01*
X39273903Y-114536337D01*
X39174035Y-114322171D01*
X39174034Y-114322169D01*
X39038494Y-114128597D01*
X38871402Y-113961505D01*
X38677830Y-113825965D01*
X38677828Y-113825964D01*
X38570745Y-113776031D01*
X38463663Y-113726097D01*
X38463659Y-113726096D01*
X38463655Y-113726094D01*
X38235413Y-113664938D01*
X38235403Y-113664936D01*
X38058966Y-113649500D01*
X37941034Y-113649500D01*
X37764596Y-113664936D01*
X37764586Y-113664938D01*
X37536344Y-113726094D01*
X37536335Y-113726098D01*
X37322171Y-113825964D01*
X37322169Y-113825965D01*
X37128597Y-113961505D01*
X36961506Y-114128597D01*
X36961501Y-114128604D01*
X36825967Y-114322165D01*
X36825965Y-114322169D01*
X36726098Y-114536335D01*
X36726094Y-114536344D01*
X36664938Y-114764586D01*
X36664936Y-114764596D01*
X36644341Y-114999999D01*
X36644341Y-115000000D01*
X34000500Y-115000000D01*
X34000500Y-110995000D01*
X43104341Y-110995000D01*
X43124936Y-111230403D01*
X43124938Y-111230413D01*
X43186094Y-111458655D01*
X43186096Y-111458659D01*
X43186097Y-111458663D01*
X43240004Y-111574267D01*
X43285965Y-111672830D01*
X43285967Y-111672834D01*
X43337484Y-111746407D01*
X43421505Y-111866401D01*
X43588599Y-112033495D01*
X43639090Y-112068849D01*
X43782165Y-112169032D01*
X43782167Y-112169033D01*
X43782170Y-112169035D01*
X43996337Y-112268903D01*
X44224592Y-112330063D01*
X44412918Y-112346539D01*
X44459999Y-112350659D01*
X44460000Y-112350659D01*
X44460001Y-112350659D01*
X44499234Y-112347226D01*
X44695408Y-112330063D01*
X44923663Y-112268903D01*
X45137830Y-112169035D01*
X45331401Y-112033495D01*
X45498495Y-111866401D01*
X45628424Y-111680842D01*
X45683002Y-111637217D01*
X45752500Y-111630023D01*
X45814855Y-111661546D01*
X45831575Y-111680842D01*
X45961500Y-111866395D01*
X45961505Y-111866401D01*
X46128599Y-112033495D01*
X46179090Y-112068849D01*
X46322165Y-112169032D01*
X46322167Y-112169033D01*
X46322170Y-112169035D01*
X46536337Y-112268903D01*
X46764592Y-112330063D01*
X46952918Y-112346539D01*
X46999999Y-112350659D01*
X47000000Y-112350659D01*
X47000001Y-112350659D01*
X47039234Y-112347226D01*
X47235408Y-112330063D01*
X47463663Y-112268903D01*
X47677830Y-112169035D01*
X47871401Y-112033495D01*
X48038495Y-111866401D01*
X48174035Y-111672830D01*
X48273903Y-111458663D01*
X48335063Y-111230408D01*
X48355659Y-110995000D01*
X48335063Y-110759592D01*
X48273903Y-110531337D01*
X48174035Y-110317171D01*
X48111495Y-110227853D01*
X48038494Y-110123597D01*
X47871402Y-109956506D01*
X47871396Y-109956501D01*
X47685842Y-109826575D01*
X47642217Y-109771998D01*
X47635023Y-109702500D01*
X47666546Y-109640145D01*
X47685842Y-109623425D01*
X47820910Y-109528849D01*
X47871401Y-109493495D01*
X48038495Y-109326401D01*
X48174035Y-109132830D01*
X48273903Y-108918663D01*
X48335063Y-108690408D01*
X48355659Y-108455000D01*
X48353610Y-108431586D01*
X48341004Y-108287500D01*
X48335063Y-108219592D01*
X48273903Y-107991337D01*
X48174035Y-107777171D01*
X48148645Y-107740909D01*
X48038494Y-107583597D01*
X47871402Y-107416506D01*
X47871396Y-107416501D01*
X47685842Y-107286575D01*
X47642217Y-107231998D01*
X47635023Y-107162500D01*
X47666546Y-107100145D01*
X47685842Y-107083425D01*
X47820910Y-106988849D01*
X47871401Y-106953495D01*
X48038495Y-106786401D01*
X48174035Y-106592830D01*
X48273903Y-106378663D01*
X48335063Y-106150408D01*
X48355659Y-105915000D01*
X48335063Y-105679592D01*
X48273903Y-105451337D01*
X48174035Y-105237171D01*
X48111495Y-105147853D01*
X48038494Y-105043597D01*
X47871402Y-104876506D01*
X47871396Y-104876501D01*
X47685842Y-104746575D01*
X47642217Y-104691998D01*
X47635023Y-104622500D01*
X47666546Y-104560145D01*
X47685842Y-104543425D01*
X47762823Y-104489522D01*
X47871401Y-104413495D01*
X48038495Y-104246401D01*
X48174035Y-104052830D01*
X48198670Y-104000000D01*
X49094540Y-104000000D01*
X49114326Y-104188256D01*
X49114327Y-104188259D01*
X49172818Y-104368277D01*
X49172821Y-104368284D01*
X49267467Y-104532216D01*
X49384629Y-104662337D01*
X49394129Y-104672888D01*
X49547265Y-104784148D01*
X49547270Y-104784151D01*
X49720192Y-104861142D01*
X49720197Y-104861144D01*
X49905354Y-104900500D01*
X49964548Y-104900500D01*
X50031587Y-104920185D01*
X50052229Y-104936819D01*
X61499194Y-116383784D01*
X61509019Y-116396048D01*
X61509240Y-116395866D01*
X61514210Y-116401873D01*
X61514213Y-116401876D01*
X61514214Y-116401877D01*
X61564651Y-116449241D01*
X61585530Y-116470120D01*
X61591004Y-116474366D01*
X61595442Y-116478156D01*
X61629418Y-116510062D01*
X61629422Y-116510064D01*
X61646973Y-116519713D01*
X61663231Y-116530392D01*
X61679064Y-116542674D01*
X61701015Y-116552172D01*
X61721837Y-116561183D01*
X61727081Y-116563752D01*
X61767908Y-116586197D01*
X61787312Y-116591179D01*
X61805710Y-116597478D01*
X61824105Y-116605438D01*
X61870129Y-116612726D01*
X61875832Y-116613907D01*
X61920981Y-116625500D01*
X61941016Y-116625500D01*
X61960413Y-116627026D01*
X61980196Y-116630160D01*
X62026583Y-116625775D01*
X62032422Y-116625500D01*
X82917257Y-116625500D01*
X82932877Y-116627224D01*
X82932904Y-116626939D01*
X82940660Y-116627671D01*
X82940667Y-116627673D01*
X83009814Y-116625500D01*
X83039350Y-116625500D01*
X83046228Y-116624630D01*
X83052041Y-116624172D01*
X83098627Y-116622709D01*
X83117869Y-116617117D01*
X83136912Y-116613174D01*
X83156792Y-116610664D01*
X83200122Y-116593507D01*
X83205646Y-116591617D01*
X83209396Y-116590527D01*
X83250390Y-116578618D01*
X83267629Y-116568422D01*
X83285103Y-116559862D01*
X83303727Y-116552488D01*
X83303727Y-116552487D01*
X83303732Y-116552486D01*
X83341449Y-116525082D01*
X83346305Y-116521892D01*
X83386420Y-116498170D01*
X83400589Y-116483999D01*
X83415379Y-116471368D01*
X83431587Y-116459594D01*
X83461299Y-116423676D01*
X83465212Y-116419376D01*
X87822771Y-112061819D01*
X87884095Y-112028334D01*
X87910453Y-112025500D01*
X91131149Y-112025500D01*
X91198188Y-112045185D01*
X91234958Y-112081679D01*
X91353516Y-112263147D01*
X91353519Y-112263151D01*
X91353521Y-112263153D01*
X91510716Y-112433913D01*
X91510719Y-112433915D01*
X91510722Y-112433918D01*
X91688318Y-112572147D01*
X91729131Y-112628857D01*
X91732806Y-112698630D01*
X91698174Y-112759313D01*
X91688318Y-112767853D01*
X91510722Y-112906081D01*
X91510719Y-112906084D01*
X91510716Y-112906086D01*
X91510716Y-112906087D01*
X91473231Y-112946807D01*
X91353516Y-113076852D01*
X91226575Y-113271151D01*
X91133342Y-113483699D01*
X91076366Y-113708691D01*
X91076364Y-113708702D01*
X91057200Y-113939993D01*
X91057200Y-113940006D01*
X91076364Y-114171297D01*
X91076366Y-114171308D01*
X91133342Y-114396300D01*
X91226575Y-114608848D01*
X91353516Y-114803147D01*
X91353519Y-114803151D01*
X91353521Y-114803153D01*
X91510716Y-114973913D01*
X91510719Y-114973915D01*
X91510722Y-114973918D01*
X91693865Y-115116464D01*
X91693871Y-115116468D01*
X91693874Y-115116470D01*
X91897997Y-115226936D01*
X91991053Y-115258882D01*
X92117515Y-115302297D01*
X92117517Y-115302297D01*
X92117519Y-115302298D01*
X92346451Y-115340500D01*
X92346452Y-115340500D01*
X92578548Y-115340500D01*
X92578549Y-115340500D01*
X92807481Y-115302298D01*
X93027003Y-115226936D01*
X93231126Y-115116470D01*
X93380767Y-115000000D01*
X128644341Y-115000000D01*
X128664936Y-115235403D01*
X128664938Y-115235413D01*
X128702206Y-115374500D01*
X128726097Y-115463663D01*
X128776031Y-115570745D01*
X128825964Y-115677828D01*
X128825965Y-115677830D01*
X128961505Y-115871402D01*
X129128597Y-116038494D01*
X129322169Y-116174034D01*
X129322171Y-116174035D01*
X129536337Y-116273903D01*
X129764592Y-116335063D01*
X129941034Y-116350500D01*
X130058966Y-116350500D01*
X130235408Y-116335063D01*
X130463663Y-116273903D01*
X130677829Y-116174035D01*
X130871401Y-116038495D01*
X131038495Y-115871401D01*
X131174035Y-115677830D01*
X131273903Y-115463663D01*
X131335063Y-115235408D01*
X131355659Y-115000000D01*
X131335063Y-114764592D01*
X131273903Y-114536337D01*
X131174035Y-114322171D01*
X131174034Y-114322169D01*
X131038494Y-114128597D01*
X130871402Y-113961505D01*
X130677830Y-113825965D01*
X130677828Y-113825964D01*
X130570745Y-113776030D01*
X130463663Y-113726097D01*
X130463659Y-113726096D01*
X130463655Y-113726094D01*
X130235413Y-113664938D01*
X130235403Y-113664936D01*
X130058966Y-113649500D01*
X129941034Y-113649500D01*
X129764596Y-113664936D01*
X129764586Y-113664938D01*
X129536344Y-113726094D01*
X129536335Y-113726098D01*
X129322171Y-113825964D01*
X129322169Y-113825965D01*
X129128597Y-113961505D01*
X128961506Y-114128597D01*
X128961501Y-114128604D01*
X128825967Y-114322165D01*
X128825965Y-114322169D01*
X128726098Y-114536335D01*
X128726094Y-114536344D01*
X128664938Y-114764586D01*
X128664936Y-114764596D01*
X128644341Y-114999999D01*
X128644341Y-115000000D01*
X93380767Y-115000000D01*
X93414284Y-114973913D01*
X93571479Y-114803153D01*
X93698424Y-114608849D01*
X93791657Y-114396300D01*
X93848634Y-114171305D01*
X93848635Y-114171297D01*
X93867800Y-113940006D01*
X93867800Y-113939993D01*
X93848635Y-113708702D01*
X93848633Y-113708691D01*
X93791657Y-113483699D01*
X93698424Y-113271151D01*
X93571483Y-113076852D01*
X93571480Y-113076849D01*
X93571479Y-113076847D01*
X93414284Y-112906087D01*
X93236680Y-112767853D01*
X93195868Y-112711143D01*
X93192193Y-112641370D01*
X93226824Y-112580687D01*
X93236681Y-112572146D01*
X93283800Y-112535472D01*
X93414284Y-112433913D01*
X93571479Y-112263153D01*
X93698424Y-112068849D01*
X93791657Y-111856300D01*
X93848634Y-111631305D01*
X93848635Y-111631297D01*
X93867800Y-111400006D01*
X93867800Y-111399993D01*
X93848635Y-111168702D01*
X93848633Y-111168691D01*
X93791657Y-110943699D01*
X93698424Y-110731151D01*
X93571483Y-110536852D01*
X93571480Y-110536849D01*
X93571479Y-110536847D01*
X93414284Y-110366087D01*
X93236680Y-110227853D01*
X93195868Y-110171143D01*
X93192193Y-110101370D01*
X93226824Y-110040687D01*
X93236681Y-110032146D01*
X93414284Y-109893913D01*
X93571479Y-109723153D01*
X93698424Y-109528849D01*
X93791657Y-109316300D01*
X93848634Y-109091305D01*
X93848635Y-109091297D01*
X93867800Y-108860006D01*
X93867800Y-108859993D01*
X93848635Y-108628702D01*
X93848633Y-108628691D01*
X93791657Y-108403699D01*
X93698424Y-108191151D01*
X93571483Y-107996852D01*
X93571480Y-107996849D01*
X93571479Y-107996847D01*
X93414284Y-107826087D01*
X93414279Y-107826083D01*
X93414277Y-107826081D01*
X93236681Y-107687852D01*
X93195868Y-107631142D01*
X93192193Y-107561369D01*
X93226825Y-107500686D01*
X93236665Y-107492158D01*
X93414284Y-107353913D01*
X93571479Y-107183153D01*
X93698424Y-106988849D01*
X93791657Y-106776300D01*
X93848634Y-106551305D01*
X93848635Y-106551297D01*
X93867800Y-106320006D01*
X93867800Y-106319993D01*
X93848635Y-106088702D01*
X93848633Y-106088691D01*
X93791657Y-105863699D01*
X93698424Y-105651151D01*
X93571483Y-105456852D01*
X93571480Y-105456849D01*
X93571479Y-105456847D01*
X93414284Y-105286087D01*
X93414279Y-105286083D01*
X93414277Y-105286081D01*
X93236681Y-105147852D01*
X93195868Y-105091142D01*
X93192193Y-105021369D01*
X93226825Y-104960686D01*
X93236665Y-104952158D01*
X93414284Y-104813913D01*
X93571479Y-104643153D01*
X93698424Y-104448849D01*
X93791657Y-104236300D01*
X93848634Y-104011305D01*
X93850147Y-103993046D01*
X93867800Y-103780006D01*
X93867800Y-103779993D01*
X93848635Y-103548702D01*
X93848633Y-103548691D01*
X93791657Y-103323699D01*
X93698424Y-103111151D01*
X93571483Y-102916852D01*
X93571480Y-102916849D01*
X93571479Y-102916847D01*
X93414284Y-102746087D01*
X93236680Y-102607853D01*
X93195868Y-102551143D01*
X93192193Y-102481370D01*
X93226824Y-102420687D01*
X93236681Y-102412146D01*
X93414284Y-102273913D01*
X93571479Y-102103153D01*
X93698424Y-101908849D01*
X93791657Y-101696300D01*
X93848634Y-101471305D01*
X93848635Y-101471297D01*
X93867800Y-101240006D01*
X93867800Y-101239993D01*
X93848635Y-101008702D01*
X93848633Y-101008691D01*
X93841417Y-100980195D01*
X98369840Y-100980195D01*
X98374225Y-101026583D01*
X98374500Y-101032421D01*
X98374500Y-107917255D01*
X98372775Y-107932872D01*
X98373061Y-107932899D01*
X98372326Y-107940665D01*
X98374500Y-108009814D01*
X98374500Y-108039343D01*
X98374501Y-108039360D01*
X98375368Y-108046231D01*
X98375826Y-108052050D01*
X98377290Y-108098624D01*
X98377291Y-108098627D01*
X98382880Y-108117867D01*
X98386824Y-108136911D01*
X98389336Y-108156791D01*
X98406490Y-108200119D01*
X98408382Y-108205647D01*
X98421381Y-108250388D01*
X98431580Y-108267634D01*
X98440138Y-108285103D01*
X98447514Y-108303732D01*
X98474898Y-108341423D01*
X98478106Y-108346307D01*
X98501827Y-108386416D01*
X98501833Y-108386424D01*
X98515990Y-108400580D01*
X98528628Y-108415376D01*
X98540405Y-108431586D01*
X98540406Y-108431587D01*
X98576309Y-108461288D01*
X98580620Y-108465210D01*
X101385241Y-111269832D01*
X102279197Y-112163788D01*
X102289022Y-112176051D01*
X102289243Y-112175869D01*
X102294214Y-112181878D01*
X102320217Y-112206295D01*
X102344635Y-112229226D01*
X102365529Y-112250120D01*
X102371011Y-112254373D01*
X102375443Y-112258157D01*
X102409418Y-112290062D01*
X102426976Y-112299714D01*
X102443235Y-112310395D01*
X102459064Y-112322673D01*
X102501838Y-112341182D01*
X102507056Y-112343738D01*
X102547908Y-112366197D01*
X102567316Y-112371180D01*
X102585717Y-112377480D01*
X102604104Y-112385437D01*
X102647488Y-112392308D01*
X102650119Y-112392725D01*
X102655839Y-112393909D01*
X102700981Y-112405500D01*
X102721016Y-112405500D01*
X102740414Y-112407026D01*
X102760194Y-112410159D01*
X102760195Y-112410160D01*
X102760195Y-112410159D01*
X102760196Y-112410160D01*
X102806583Y-112405775D01*
X102812422Y-112405500D01*
X111966789Y-112405500D01*
X112033828Y-112425185D01*
X112070598Y-112461679D01*
X112184728Y-112636370D01*
X112184731Y-112636373D01*
X112340692Y-112805792D01*
X112454139Y-112894091D01*
X112521868Y-112946807D01*
X112522411Y-112947229D01*
X112724931Y-113056828D01*
X112838025Y-113095653D01*
X112942725Y-113131597D01*
X112942727Y-113131597D01*
X112942729Y-113131598D01*
X113169863Y-113169500D01*
X113169864Y-113169500D01*
X113400136Y-113169500D01*
X113400137Y-113169500D01*
X113627271Y-113131598D01*
X113628693Y-113131110D01*
X113635662Y-113128717D01*
X113845069Y-113056828D01*
X114047589Y-112947229D01*
X114229308Y-112805792D01*
X114385269Y-112636373D01*
X114390179Y-112628857D01*
X114451191Y-112535472D01*
X114504337Y-112490115D01*
X114573569Y-112480691D01*
X114636905Y-112510193D01*
X114658809Y-112535472D01*
X114724728Y-112636370D01*
X114724731Y-112636373D01*
X114880692Y-112805792D01*
X114994139Y-112894091D01*
X115061868Y-112946807D01*
X115062411Y-112947229D01*
X115264931Y-113056828D01*
X115378025Y-113095653D01*
X115482725Y-113131597D01*
X115482727Y-113131597D01*
X115482729Y-113131598D01*
X115709863Y-113169500D01*
X115709864Y-113169500D01*
X115940136Y-113169500D01*
X115940137Y-113169500D01*
X116167271Y-113131598D01*
X116168693Y-113131110D01*
X116175662Y-113128717D01*
X116385069Y-113056828D01*
X116587589Y-112947229D01*
X116769308Y-112805792D01*
X116925269Y-112636373D01*
X116991490Y-112535013D01*
X117044636Y-112489657D01*
X117113868Y-112480233D01*
X117177203Y-112509735D01*
X117199108Y-112535014D01*
X117221760Y-112569685D01*
X117793727Y-111997718D01*
X117855050Y-111964233D01*
X117924741Y-111969217D01*
X117978355Y-112008086D01*
X118026812Y-112068849D01*
X118059248Y-112109522D01*
X118131682Y-112158906D01*
X118175983Y-112212933D01*
X118184043Y-112282337D01*
X118153300Y-112345080D01*
X118149511Y-112349040D01*
X117574038Y-112924512D01*
X117574039Y-112924513D01*
X117602683Y-112946807D01*
X117602685Y-112946808D01*
X117805131Y-113056367D01*
X117805140Y-113056370D01*
X118022849Y-113131110D01*
X118249905Y-113169000D01*
X118480095Y-113169000D01*
X118707150Y-113131110D01*
X118924859Y-113056370D01*
X118924868Y-113056367D01*
X119127316Y-112946807D01*
X119127322Y-112946803D01*
X119155959Y-112924514D01*
X119155959Y-112924512D01*
X118582937Y-112351490D01*
X118549452Y-112290167D01*
X118554436Y-112220475D01*
X118596308Y-112164542D01*
X118616814Y-112152090D01*
X118618224Y-112151412D01*
X118716450Y-112060272D01*
X118739006Y-112021202D01*
X118789571Y-111972987D01*
X118858178Y-111959763D01*
X118923043Y-111985730D01*
X118934074Y-111995521D01*
X119508238Y-112569686D01*
X119590774Y-112443357D01*
X119683242Y-112232553D01*
X119739750Y-112009408D01*
X119739752Y-112009396D01*
X119758760Y-111780005D01*
X119758760Y-111779994D01*
X119739752Y-111550603D01*
X119739750Y-111550591D01*
X119683242Y-111327446D01*
X119590775Y-111116644D01*
X119508238Y-110990312D01*
X118936271Y-111562280D01*
X118874948Y-111595765D01*
X118805256Y-111590781D01*
X118751643Y-111551912D01*
X118741185Y-111538798D01*
X118670752Y-111450478D01*
X118598314Y-111401090D01*
X118554014Y-111347064D01*
X118545955Y-111277661D01*
X118576698Y-111214918D01*
X118580487Y-111210958D01*
X119155959Y-110635487D01*
X119155959Y-110635485D01*
X119127318Y-110613194D01*
X118924867Y-110503632D01*
X118924859Y-110503629D01*
X118707150Y-110428889D01*
X118480095Y-110391000D01*
X118249905Y-110391000D01*
X118022849Y-110428889D01*
X117805140Y-110503629D01*
X117805132Y-110503632D01*
X117602681Y-110613194D01*
X117574039Y-110635485D01*
X117574039Y-110635486D01*
X118147062Y-111208509D01*
X118180547Y-111269832D01*
X118175563Y-111339524D01*
X118133691Y-111395457D01*
X118113189Y-111407907D01*
X118111778Y-111408586D01*
X118013550Y-111499727D01*
X117990993Y-111538798D01*
X117940425Y-111587013D01*
X117871818Y-111600235D01*
X117806953Y-111574267D01*
X117795925Y-111564478D01*
X117221759Y-110990312D01*
X117199106Y-111024986D01*
X117145960Y-111070342D01*
X117076729Y-111079766D01*
X117013393Y-111050264D01*
X116991489Y-111024985D01*
X116991190Y-111024528D01*
X116961157Y-110978557D01*
X116925271Y-110923629D01*
X116898355Y-110894390D01*
X116769308Y-110754208D01*
X116616775Y-110635487D01*
X116587591Y-110612772D01*
X116385069Y-110503172D01*
X116385061Y-110503169D01*
X116167274Y-110428402D01*
X115996920Y-110399975D01*
X115940137Y-110390500D01*
X115709863Y-110390500D01*
X115664436Y-110398080D01*
X115482725Y-110428402D01*
X115264938Y-110503169D01*
X115264930Y-110503172D01*
X115062408Y-110612772D01*
X114880694Y-110754206D01*
X114880689Y-110754211D01*
X114724727Y-110923630D01*
X114658808Y-111024528D01*
X114605662Y-111069884D01*
X114536431Y-111079308D01*
X114473095Y-111049806D01*
X114451192Y-111024528D01*
X114385272Y-110923630D01*
X114300534Y-110831580D01*
X114229308Y-110754208D01*
X114076775Y-110635487D01*
X114047591Y-110612772D01*
X113845069Y-110503172D01*
X113845061Y-110503169D01*
X113627274Y-110428402D01*
X113456920Y-110399975D01*
X113400137Y-110390500D01*
X113169863Y-110390500D01*
X113124436Y-110398080D01*
X112942725Y-110428402D01*
X112724938Y-110503169D01*
X112724930Y-110503172D01*
X112522408Y-110612772D01*
X112340694Y-110754206D01*
X112340689Y-110754211D01*
X112184728Y-110923629D01*
X112070598Y-111098321D01*
X112017452Y-111143678D01*
X111966789Y-111154500D01*
X103090453Y-111154500D01*
X103023414Y-111134815D01*
X103002772Y-111118181D01*
X99661819Y-107777228D01*
X99628334Y-107715905D01*
X99625500Y-107689547D01*
X99625500Y-101310452D01*
X99645185Y-101243413D01*
X99661819Y-101222771D01*
X100947772Y-99936819D01*
X101009095Y-99903334D01*
X101035453Y-99900500D01*
X101094644Y-99900500D01*
X101094646Y-99900500D01*
X101279803Y-99861144D01*
X101452730Y-99784151D01*
X101605871Y-99672888D01*
X101732533Y-99532216D01*
X101827179Y-99368284D01*
X101885674Y-99188256D01*
X101905460Y-99000000D01*
X101885674Y-98811744D01*
X101827179Y-98631716D01*
X101732533Y-98467784D01*
X101605871Y-98327112D01*
X101605870Y-98327111D01*
X101452734Y-98215851D01*
X101452729Y-98215848D01*
X101279807Y-98138857D01*
X101279802Y-98138855D01*
X101134000Y-98107865D01*
X101094646Y-98099500D01*
X100905354Y-98099500D01*
X100872897Y-98106398D01*
X100720197Y-98138855D01*
X100720192Y-98138857D01*
X100547270Y-98215848D01*
X100547265Y-98215851D01*
X100394129Y-98327111D01*
X100267466Y-98467785D01*
X100172821Y-98631715D01*
X100172818Y-98631722D01*
X100118304Y-98799500D01*
X100114326Y-98811744D01*
X100101761Y-98931297D01*
X100096679Y-98979649D01*
X100070094Y-99044263D01*
X100061039Y-99054368D01*
X98616208Y-100499199D01*
X98603951Y-100509020D01*
X98604134Y-100509241D01*
X98598123Y-100514213D01*
X98550772Y-100564636D01*
X98529889Y-100585519D01*
X98529877Y-100585532D01*
X98525621Y-100591017D01*
X98521837Y-100595447D01*
X98489937Y-100629418D01*
X98489936Y-100629420D01*
X98480284Y-100646976D01*
X98469610Y-100663226D01*
X98457329Y-100679061D01*
X98457324Y-100679068D01*
X98438815Y-100721838D01*
X98436245Y-100727084D01*
X98413803Y-100767906D01*
X98408822Y-100787307D01*
X98402521Y-100805710D01*
X98394562Y-100824102D01*
X98394561Y-100824105D01*
X98387271Y-100870127D01*
X98386087Y-100875846D01*
X98374501Y-100920972D01*
X98374500Y-100920982D01*
X98374500Y-100941016D01*
X98372973Y-100960415D01*
X98369840Y-100980194D01*
X98369840Y-100980195D01*
X93841417Y-100980195D01*
X93791657Y-100783699D01*
X93698424Y-100571151D01*
X93571483Y-100376852D01*
X93571480Y-100376849D01*
X93571479Y-100376847D01*
X93414284Y-100206087D01*
X93236680Y-100067853D01*
X93195868Y-100011143D01*
X93192193Y-99941370D01*
X93226824Y-99880687D01*
X93236681Y-99872146D01*
X93414284Y-99733913D01*
X93571479Y-99563153D01*
X93698424Y-99368849D01*
X93791657Y-99156300D01*
X93848634Y-98931305D01*
X93848635Y-98931297D01*
X93867800Y-98700006D01*
X93867800Y-98699993D01*
X93848635Y-98468702D01*
X93848633Y-98468691D01*
X93791657Y-98243699D01*
X93698424Y-98031151D01*
X93571483Y-97836852D01*
X93571480Y-97836849D01*
X93571479Y-97836847D01*
X93414284Y-97666087D01*
X93236680Y-97527853D01*
X93195868Y-97471143D01*
X93192193Y-97401370D01*
X93226824Y-97340687D01*
X93236681Y-97332146D01*
X93414284Y-97193913D01*
X93571479Y-97023153D01*
X93698424Y-96828849D01*
X93791657Y-96616300D01*
X93848634Y-96391305D01*
X93848635Y-96391297D01*
X93867800Y-96160006D01*
X93867800Y-96159993D01*
X93848635Y-95928702D01*
X93848633Y-95928691D01*
X93791657Y-95703699D01*
X93698424Y-95491151D01*
X93571483Y-95296852D01*
X93571480Y-95296849D01*
X93571479Y-95296847D01*
X93414284Y-95126087D01*
X93236680Y-94987853D01*
X93195868Y-94931143D01*
X93192193Y-94861370D01*
X93226824Y-94800687D01*
X93236681Y-94792146D01*
X93239843Y-94789685D01*
X93414284Y-94653913D01*
X93571479Y-94483153D01*
X93698424Y-94288849D01*
X93791657Y-94076300D01*
X93848634Y-93851305D01*
X93848635Y-93851297D01*
X93867800Y-93620006D01*
X93867800Y-93619993D01*
X93848635Y-93388702D01*
X93848633Y-93388691D01*
X93791657Y-93163699D01*
X93698424Y-92951151D01*
X93571483Y-92756852D01*
X93571480Y-92756849D01*
X93571479Y-92756847D01*
X93414284Y-92586087D01*
X93236680Y-92447853D01*
X93195868Y-92391143D01*
X93192193Y-92321370D01*
X93226824Y-92260687D01*
X93236681Y-92252146D01*
X93414284Y-92113913D01*
X93571479Y-91943153D01*
X93698424Y-91748849D01*
X93791657Y-91536300D01*
X93848634Y-91311305D01*
X93848635Y-91311297D01*
X93867800Y-91080006D01*
X93867800Y-91079993D01*
X93848635Y-90848702D01*
X93848633Y-90848691D01*
X93791657Y-90623699D01*
X93698424Y-90411151D01*
X93571483Y-90216852D01*
X93571480Y-90216849D01*
X93571479Y-90216847D01*
X93414284Y-90046087D01*
X93236680Y-89907853D01*
X93195868Y-89851143D01*
X93192193Y-89781370D01*
X93226824Y-89720687D01*
X93236681Y-89712146D01*
X93414284Y-89573913D01*
X93571479Y-89403153D01*
X93698424Y-89208849D01*
X93791657Y-88996300D01*
X93848634Y-88771305D01*
X93848635Y-88771297D01*
X93867800Y-88540006D01*
X93867800Y-88539993D01*
X93848635Y-88308702D01*
X93848633Y-88308691D01*
X93791657Y-88083699D01*
X93698424Y-87871151D01*
X93571483Y-87676852D01*
X93571480Y-87676849D01*
X93571479Y-87676847D01*
X93414284Y-87506087D01*
X93236680Y-87367853D01*
X93195868Y-87311143D01*
X93192193Y-87241370D01*
X93226824Y-87180687D01*
X93236681Y-87172146D01*
X93414284Y-87033913D01*
X93571479Y-86863153D01*
X93698424Y-86668849D01*
X93759682Y-86529195D01*
X103820840Y-86529195D01*
X103825225Y-86575583D01*
X103825500Y-86581421D01*
X103825500Y-100323255D01*
X103823775Y-100338872D01*
X103824061Y-100338899D01*
X103823326Y-100346665D01*
X103825500Y-100415814D01*
X103825500Y-100445343D01*
X103825501Y-100445360D01*
X103826368Y-100452231D01*
X103826826Y-100458050D01*
X103828290Y-100504624D01*
X103828291Y-100504627D01*
X103833880Y-100523867D01*
X103837824Y-100542911D01*
X103840336Y-100562792D01*
X103853265Y-100595447D01*
X103857490Y-100606119D01*
X103859382Y-100611647D01*
X103872381Y-100656388D01*
X103882580Y-100673634D01*
X103891138Y-100691103D01*
X103898514Y-100709732D01*
X103925898Y-100747423D01*
X103929106Y-100752307D01*
X103952827Y-100792416D01*
X103952833Y-100792424D01*
X103966990Y-100806580D01*
X103979627Y-100821375D01*
X103981610Y-100824104D01*
X103991405Y-100837586D01*
X103991406Y-100837587D01*
X104027309Y-100867288D01*
X104031620Y-100871210D01*
X104257055Y-101096646D01*
X104292705Y-101132296D01*
X104326190Y-101193619D01*
X104325230Y-101250416D01*
X104289753Y-101390513D01*
X104270738Y-101619994D01*
X104270738Y-101620005D01*
X104289753Y-101849484D01*
X104346282Y-102072714D01*
X104438782Y-102283594D01*
X104564728Y-102476370D01*
X104589792Y-102503597D01*
X104720692Y-102645792D01*
X104786704Y-102697171D01*
X104906459Y-102790380D01*
X104905570Y-102791521D01*
X104946632Y-102839624D01*
X104956063Y-102908855D01*
X104926568Y-102972194D01*
X104906428Y-102989651D01*
X104906732Y-102990042D01*
X104874039Y-103015485D01*
X104874039Y-103015486D01*
X105447062Y-103588509D01*
X105480547Y-103649832D01*
X105475563Y-103719524D01*
X105433691Y-103775457D01*
X105413189Y-103787907D01*
X105411778Y-103788586D01*
X105313550Y-103879727D01*
X105290993Y-103918798D01*
X105240425Y-103967013D01*
X105171818Y-103980235D01*
X105106953Y-103954267D01*
X105095925Y-103944478D01*
X104521760Y-103370313D01*
X104439224Y-103496644D01*
X104346757Y-103707446D01*
X104290249Y-103930591D01*
X104290247Y-103930603D01*
X104271240Y-104159994D01*
X104271240Y-104160005D01*
X104290247Y-104389396D01*
X104290249Y-104389408D01*
X104346757Y-104612553D01*
X104439224Y-104823355D01*
X104521759Y-104949685D01*
X105093727Y-104377718D01*
X105155050Y-104344233D01*
X105224741Y-104349217D01*
X105278355Y-104388086D01*
X105326812Y-104448849D01*
X105359248Y-104489522D01*
X105431682Y-104538906D01*
X105475983Y-104592933D01*
X105484043Y-104662337D01*
X105453300Y-104725080D01*
X105449511Y-104729040D01*
X104874038Y-105304512D01*
X104874039Y-105304513D01*
X104902683Y-105326807D01*
X104902685Y-105326808D01*
X105105131Y-105436367D01*
X105105140Y-105436370D01*
X105322849Y-105511110D01*
X105549905Y-105549000D01*
X105780095Y-105549000D01*
X106007150Y-105511110D01*
X106224859Y-105436370D01*
X106224868Y-105436367D01*
X106427316Y-105326807D01*
X106427322Y-105326803D01*
X106455959Y-105304514D01*
X106455959Y-105304512D01*
X105882937Y-104731490D01*
X105849452Y-104670167D01*
X105854436Y-104600475D01*
X105896308Y-104544542D01*
X105916814Y-104532090D01*
X105918224Y-104531412D01*
X106016450Y-104440272D01*
X106039006Y-104401202D01*
X106089571Y-104352987D01*
X106158178Y-104339763D01*
X106223043Y-104365730D01*
X106234074Y-104375521D01*
X106808238Y-104949686D01*
X106890774Y-104823357D01*
X106983242Y-104612553D01*
X107039750Y-104389408D01*
X107039752Y-104389396D01*
X107058760Y-104160005D01*
X107058760Y-104159994D01*
X107039752Y-103930603D01*
X107039750Y-103930591D01*
X106983242Y-103707446D01*
X106890775Y-103496644D01*
X106808238Y-103370312D01*
X106236271Y-103942280D01*
X106174948Y-103975765D01*
X106105256Y-103970781D01*
X106051643Y-103931912D01*
X106041185Y-103918798D01*
X105970752Y-103830478D01*
X105898314Y-103781090D01*
X105854014Y-103727064D01*
X105845955Y-103657661D01*
X105876698Y-103594918D01*
X105880487Y-103590958D01*
X106455959Y-103015487D01*
X106455959Y-103015485D01*
X106423267Y-102990041D01*
X106424212Y-102988826D01*
X106383364Y-102940967D01*
X106373937Y-102871736D01*
X106403437Y-102808399D01*
X106423819Y-102790737D01*
X106423541Y-102790380D01*
X106480456Y-102746081D01*
X106609308Y-102645792D01*
X106765269Y-102476373D01*
X106891217Y-102283595D01*
X106983717Y-102072716D01*
X107040246Y-101849488D01*
X107059262Y-101620000D01*
X107040246Y-101390512D01*
X106983717Y-101167284D01*
X106891217Y-100956405D01*
X106868074Y-100920982D01*
X106765271Y-100763629D01*
X106729263Y-100724514D01*
X106609308Y-100594208D01*
X106487240Y-100499199D01*
X106423541Y-100449620D01*
X106424525Y-100448354D01*
X106383824Y-100400670D01*
X106374396Y-100331439D01*
X106403893Y-100268102D01*
X106423865Y-100250796D01*
X106423541Y-100250380D01*
X106480456Y-100206081D01*
X106609308Y-100105792D01*
X106765269Y-99936373D01*
X106891217Y-99743595D01*
X106983717Y-99532716D01*
X107040246Y-99309488D01*
X107059262Y-99080000D01*
X107040246Y-98850512D01*
X106983717Y-98627284D01*
X106891217Y-98416405D01*
X106845796Y-98346883D01*
X106765271Y-98223629D01*
X106651002Y-98099500D01*
X106609308Y-98054208D01*
X106541036Y-98001070D01*
X106427591Y-97912772D01*
X106225069Y-97803172D01*
X106225061Y-97803169D01*
X106007274Y-97728402D01*
X105836920Y-97699975D01*
X105780137Y-97690500D01*
X105549863Y-97690500D01*
X105517415Y-97695914D01*
X105322723Y-97728402D01*
X105240762Y-97756540D01*
X105170964Y-97759690D01*
X105110543Y-97724603D01*
X105078682Y-97662421D01*
X105076500Y-97639259D01*
X105076500Y-88920005D01*
X111255738Y-88920005D01*
X111274753Y-89149484D01*
X111331282Y-89372714D01*
X111423782Y-89583594D01*
X111549728Y-89776370D01*
X111549731Y-89776373D01*
X111705692Y-89945792D01*
X111819139Y-90034091D01*
X111850945Y-90058847D01*
X111887411Y-90087229D01*
X112089931Y-90196828D01*
X112203025Y-90235653D01*
X112307725Y-90271597D01*
X112307727Y-90271597D01*
X112307729Y-90271598D01*
X112534863Y-90309500D01*
X112534864Y-90309500D01*
X112765136Y-90309500D01*
X112765137Y-90309500D01*
X112992271Y-90271598D01*
X113210069Y-90196828D01*
X113412589Y-90087229D01*
X113594308Y-89945792D01*
X113750269Y-89776373D01*
X113876217Y-89583595D01*
X113968717Y-89372716D01*
X114025246Y-89149488D01*
X114044262Y-88920005D01*
X117605738Y-88920005D01*
X117624753Y-89149484D01*
X117681282Y-89372714D01*
X117773782Y-89583594D01*
X117899728Y-89776370D01*
X117899731Y-89776373D01*
X118055692Y-89945792D01*
X118169139Y-90034091D01*
X118200945Y-90058847D01*
X118237411Y-90087229D01*
X118439931Y-90196828D01*
X118553025Y-90235653D01*
X118657725Y-90271597D01*
X118657727Y-90271597D01*
X118657729Y-90271598D01*
X118884863Y-90309500D01*
X118884864Y-90309500D01*
X119115136Y-90309500D01*
X119115137Y-90309500D01*
X119342271Y-90271598D01*
X119560069Y-90196828D01*
X119762589Y-90087229D01*
X119944308Y-89945792D01*
X120100269Y-89776373D01*
X120226217Y-89583595D01*
X120318717Y-89372716D01*
X120375246Y-89149488D01*
X120394262Y-88920000D01*
X120375246Y-88690512D01*
X120318717Y-88467284D01*
X120226217Y-88256405D01*
X120220387Y-88247482D01*
X120100271Y-88063629D01*
X120073355Y-88034390D01*
X119944308Y-87894208D01*
X119876036Y-87841070D01*
X119762591Y-87752772D01*
X119560069Y-87643172D01*
X119560061Y-87643169D01*
X119342274Y-87568402D01*
X119171920Y-87539975D01*
X119115137Y-87530500D01*
X118884863Y-87530500D01*
X118839436Y-87538080D01*
X118657725Y-87568402D01*
X118439938Y-87643169D01*
X118439930Y-87643172D01*
X118237408Y-87752772D01*
X118055694Y-87894206D01*
X118055689Y-87894211D01*
X117899728Y-88063629D01*
X117773782Y-88256405D01*
X117681282Y-88467285D01*
X117624753Y-88690515D01*
X117605738Y-88919994D01*
X117605738Y-88920005D01*
X114044262Y-88920005D01*
X114044262Y-88920000D01*
X114025246Y-88690512D01*
X113968717Y-88467284D01*
X113876217Y-88256405D01*
X113870387Y-88247482D01*
X113750271Y-88063629D01*
X113723355Y-88034390D01*
X113594308Y-87894208D01*
X113526036Y-87841070D01*
X113412591Y-87752772D01*
X113210069Y-87643172D01*
X113210061Y-87643169D01*
X112992274Y-87568402D01*
X112821920Y-87539975D01*
X112765137Y-87530500D01*
X112534863Y-87530500D01*
X112489436Y-87538080D01*
X112307725Y-87568402D01*
X112089938Y-87643169D01*
X112089930Y-87643172D01*
X111887408Y-87752772D01*
X111705694Y-87894206D01*
X111705689Y-87894211D01*
X111549728Y-88063629D01*
X111423782Y-88256405D01*
X111331282Y-88467285D01*
X111274753Y-88690515D01*
X111255738Y-88919994D01*
X111255738Y-88920005D01*
X105076500Y-88920005D01*
X105076500Y-86859452D01*
X105096185Y-86792413D01*
X105112819Y-86771771D01*
X105682772Y-86201819D01*
X105744095Y-86168334D01*
X105770453Y-86165500D01*
X128724773Y-86165500D01*
X128791812Y-86185185D01*
X128826348Y-86218377D01*
X128961501Y-86411396D01*
X128961506Y-86411402D01*
X129128597Y-86578493D01*
X129128603Y-86578498D01*
X129314158Y-86708425D01*
X129357783Y-86763002D01*
X129364977Y-86832500D01*
X129333454Y-86894855D01*
X129314158Y-86911575D01*
X129128597Y-87041505D01*
X128961505Y-87208597D01*
X128825965Y-87402169D01*
X128825964Y-87402171D01*
X128726098Y-87616335D01*
X128726094Y-87616344D01*
X128664938Y-87844586D01*
X128664936Y-87844596D01*
X128644341Y-88079999D01*
X128644341Y-88080000D01*
X128664937Y-88315408D01*
X128691855Y-88415873D01*
X128690192Y-88485723D01*
X128659761Y-88535646D01*
X125857228Y-91338181D01*
X125795905Y-91371666D01*
X125769547Y-91374500D01*
X111703748Y-91374500D01*
X111636709Y-91354815D01*
X111611600Y-91333474D01*
X111605873Y-91327114D01*
X111605869Y-91327110D01*
X111452734Y-91215851D01*
X111452729Y-91215848D01*
X111279807Y-91138857D01*
X111279802Y-91138855D01*
X111134001Y-91107865D01*
X111094646Y-91099500D01*
X110905354Y-91099500D01*
X110872897Y-91106398D01*
X110720197Y-91138855D01*
X110720192Y-91138857D01*
X110547270Y-91215848D01*
X110547265Y-91215851D01*
X110394129Y-91327111D01*
X110267466Y-91467785D01*
X110172821Y-91631715D01*
X110172818Y-91631722D01*
X110122968Y-91785147D01*
X110114326Y-91811744D01*
X110094540Y-92000000D01*
X110114326Y-92188256D01*
X110114327Y-92188259D01*
X110172818Y-92368277D01*
X110172821Y-92368284D01*
X110267467Y-92532216D01*
X110369185Y-92645185D01*
X110394129Y-92672888D01*
X110547265Y-92784148D01*
X110547270Y-92784151D01*
X110720192Y-92861142D01*
X110720197Y-92861144D01*
X110905354Y-92900500D01*
X110905355Y-92900500D01*
X111094644Y-92900500D01*
X111094646Y-92900500D01*
X111279803Y-92861144D01*
X111452730Y-92784151D01*
X111605871Y-92672888D01*
X111608788Y-92669647D01*
X111611600Y-92666526D01*
X111671087Y-92629879D01*
X111703748Y-92625500D01*
X111793326Y-92625500D01*
X111860365Y-92645185D01*
X111906120Y-92697989D01*
X111916064Y-92767147D01*
X111887039Y-92830703D01*
X111869484Y-92847357D01*
X111859039Y-92855485D01*
X111859039Y-92855486D01*
X112427942Y-93424389D01*
X112461427Y-93485712D01*
X112456443Y-93555404D01*
X112414571Y-93611337D01*
X112394073Y-93623785D01*
X112393646Y-93623990D01*
X112393645Y-93623990D01*
X112294202Y-93716260D01*
X112294199Y-93716264D01*
X112271967Y-93754771D01*
X112221400Y-93802987D01*
X112152793Y-93816209D01*
X112087928Y-93790241D01*
X112076899Y-93780452D01*
X111506760Y-93210313D01*
X111424224Y-93336644D01*
X111331757Y-93547446D01*
X111275249Y-93770591D01*
X111275247Y-93770603D01*
X111256240Y-93999994D01*
X111256240Y-94000005D01*
X111275247Y-94229396D01*
X111275249Y-94229408D01*
X111331757Y-94452553D01*
X111424224Y-94663355D01*
X111506759Y-94789685D01*
X112074814Y-94221631D01*
X112136137Y-94188146D01*
X112205828Y-94193130D01*
X112259443Y-94232000D01*
X112340464Y-94333599D01*
X112340466Y-94333600D01*
X112412723Y-94382865D01*
X112457025Y-94436894D01*
X112465083Y-94506297D01*
X112434340Y-94569040D01*
X112430552Y-94572999D01*
X111859038Y-95144512D01*
X111859039Y-95144513D01*
X111887683Y-95166807D01*
X111887685Y-95166808D01*
X112017286Y-95236945D01*
X112066876Y-95286165D01*
X112081984Y-95354381D01*
X112057814Y-95419937D01*
X112002038Y-95462018D01*
X111958268Y-95470000D01*
X109928253Y-95470000D01*
X109861214Y-95450315D01*
X109815459Y-95397511D01*
X109805515Y-95328353D01*
X109807679Y-95317053D01*
X109826176Y-95240006D01*
X109833285Y-95210395D01*
X109853582Y-94952500D01*
X109833285Y-94694605D01*
X109772895Y-94443060D01*
X109684430Y-94229488D01*
X109673897Y-94204058D01*
X109569690Y-94034008D01*
X109538731Y-93983488D01*
X109538730Y-93983487D01*
X109538729Y-93983485D01*
X109425839Y-93851308D01*
X109370724Y-93786776D01*
X109263181Y-93694926D01*
X109174014Y-93618770D01*
X109174009Y-93618767D01*
X108953441Y-93483602D01*
X108714442Y-93384606D01*
X108714444Y-93384606D01*
X108714440Y-93384605D01*
X108714436Y-93384604D01*
X108714430Y-93384602D01*
X108462898Y-93324215D01*
X108269473Y-93308992D01*
X108205000Y-93303918D01*
X108204999Y-93303918D01*
X107947101Y-93324215D01*
X107695569Y-93384602D01*
X107695557Y-93384606D01*
X107456558Y-93483602D01*
X107235990Y-93618767D01*
X107235985Y-93618770D01*
X107039276Y-93786776D01*
X106871270Y-93983485D01*
X106871267Y-93983490D01*
X106736102Y-94204058D01*
X106637106Y-94443057D01*
X106637102Y-94443069D01*
X106576715Y-94694601D01*
X106556418Y-94952500D01*
X106576715Y-95210398D01*
X106637102Y-95461930D01*
X106637104Y-95461936D01*
X106637105Y-95461940D01*
X106640444Y-95470000D01*
X106736102Y-95700941D01*
X106871267Y-95921509D01*
X106871270Y-95921514D01*
X106936823Y-95998266D01*
X107039276Y-96118224D01*
X107088190Y-96160000D01*
X107235985Y-96286229D01*
X107235990Y-96286232D01*
X107456559Y-96421397D01*
X107456561Y-96421398D01*
X107502952Y-96440614D01*
X107557356Y-96484454D01*
X107579421Y-96550748D01*
X107579500Y-96555175D01*
X107579500Y-106684824D01*
X107559815Y-106751863D01*
X107507011Y-106797618D01*
X107502955Y-106799384D01*
X107456562Y-106818601D01*
X107456552Y-106818606D01*
X107235990Y-106953767D01*
X107235985Y-106953770D01*
X107039276Y-107121776D01*
X106871270Y-107318485D01*
X106871267Y-107318490D01*
X106736102Y-107539058D01*
X106637106Y-107778057D01*
X106637102Y-107778069D01*
X106576715Y-108029601D01*
X106556418Y-108287500D01*
X106576715Y-108545398D01*
X106637102Y-108796930D01*
X106637106Y-108796942D01*
X106736102Y-109035941D01*
X106871267Y-109256509D01*
X106871270Y-109256514D01*
X106930960Y-109326402D01*
X107039276Y-109453224D01*
X107127821Y-109528848D01*
X107235985Y-109621229D01*
X107235987Y-109621230D01*
X107235988Y-109621231D01*
X107248723Y-109629035D01*
X107456558Y-109756397D01*
X107541057Y-109791397D01*
X107695560Y-109855395D01*
X107947105Y-109915785D01*
X108205000Y-109936082D01*
X108462895Y-109915785D01*
X108714440Y-109855395D01*
X108953441Y-109756397D01*
X109174012Y-109621231D01*
X109370724Y-109453224D01*
X109538731Y-109256512D01*
X109673897Y-109035941D01*
X109772895Y-108796940D01*
X109833285Y-108545395D01*
X109853582Y-108287500D01*
X109833285Y-108029605D01*
X109772895Y-107778060D01*
X109692346Y-107583599D01*
X109673897Y-107539058D01*
X109575102Y-107377841D01*
X109538731Y-107318488D01*
X109538730Y-107318487D01*
X109538729Y-107318485D01*
X109464862Y-107231998D01*
X109370724Y-107121776D01*
X109215086Y-106988849D01*
X109174014Y-106953770D01*
X109174009Y-106953767D01*
X108953447Y-106818606D01*
X108953437Y-106818601D01*
X108907045Y-106799384D01*
X108852642Y-106755542D01*
X108830579Y-106689247D01*
X108830500Y-106684824D01*
X108830500Y-96738817D01*
X108850185Y-96671778D01*
X108902989Y-96626023D01*
X108972147Y-96616079D01*
X109019245Y-96636068D01*
X109020349Y-96634202D01*
X109027062Y-96638172D01*
X109027063Y-96638172D01*
X109027064Y-96638173D01*
X109069838Y-96656682D01*
X109075056Y-96659238D01*
X109115908Y-96681697D01*
X109135316Y-96686680D01*
X109153717Y-96692980D01*
X109172104Y-96700937D01*
X109215488Y-96707808D01*
X109218119Y-96708225D01*
X109223839Y-96709409D01*
X109268981Y-96721000D01*
X109289016Y-96721000D01*
X109308414Y-96722526D01*
X109328194Y-96725659D01*
X109328195Y-96725660D01*
X109328195Y-96725659D01*
X109328196Y-96725660D01*
X109374583Y-96721275D01*
X109380422Y-96721000D01*
X122219257Y-96721000D01*
X122234877Y-96722724D01*
X122234904Y-96722439D01*
X122242660Y-96723171D01*
X122242667Y-96723173D01*
X122311814Y-96721000D01*
X122341350Y-96721000D01*
X122348228Y-96720130D01*
X122354041Y-96719672D01*
X122400627Y-96718209D01*
X122419869Y-96712617D01*
X122438912Y-96708674D01*
X122458792Y-96706164D01*
X122502122Y-96689007D01*
X122507646Y-96687117D01*
X122511396Y-96686027D01*
X122552390Y-96674118D01*
X122569629Y-96663922D01*
X122587103Y-96655362D01*
X122605729Y-96647987D01*
X122605727Y-96647987D01*
X122605732Y-96647986D01*
X122622611Y-96635721D01*
X122688416Y-96612239D01*
X122756471Y-96628062D01*
X122805168Y-96678166D01*
X122819500Y-96736037D01*
X122819500Y-106684824D01*
X122799815Y-106751863D01*
X122747011Y-106797618D01*
X122742955Y-106799384D01*
X122696562Y-106818601D01*
X122696552Y-106818606D01*
X122475990Y-106953767D01*
X122475985Y-106953770D01*
X122279276Y-107121776D01*
X122111270Y-107318485D01*
X122111267Y-107318490D01*
X121976102Y-107539058D01*
X121877106Y-107778057D01*
X121877102Y-107778069D01*
X121816715Y-108029601D01*
X121796418Y-108287500D01*
X121816715Y-108545398D01*
X121877102Y-108796930D01*
X121877106Y-108796942D01*
X121976102Y-109035941D01*
X122111267Y-109256509D01*
X122111270Y-109256514D01*
X122170960Y-109326402D01*
X122279276Y-109453224D01*
X122367821Y-109528848D01*
X122475985Y-109621229D01*
X122475987Y-109621230D01*
X122475988Y-109621231D01*
X122488723Y-109629035D01*
X122696558Y-109756397D01*
X122781057Y-109791397D01*
X122935560Y-109855395D01*
X123187105Y-109915785D01*
X123445000Y-109936082D01*
X123702895Y-109915785D01*
X123954440Y-109855395D01*
X124193441Y-109756397D01*
X124414012Y-109621231D01*
X124610724Y-109453224D01*
X124778731Y-109256512D01*
X124913897Y-109035941D01*
X125012895Y-108796940D01*
X125073285Y-108545395D01*
X125093582Y-108287500D01*
X125073285Y-108029605D01*
X125012895Y-107778060D01*
X124932346Y-107583599D01*
X124913897Y-107539058D01*
X124815102Y-107377841D01*
X124778731Y-107318488D01*
X124778730Y-107318487D01*
X124778729Y-107318485D01*
X124704862Y-107231998D01*
X124610724Y-107121776D01*
X124455086Y-106988849D01*
X124414014Y-106953770D01*
X124414009Y-106953767D01*
X124193447Y-106818606D01*
X124193437Y-106818601D01*
X124147045Y-106799384D01*
X124092642Y-106755542D01*
X124070579Y-106689247D01*
X124070500Y-106684824D01*
X124070500Y-96555175D01*
X124090185Y-96488136D01*
X124142989Y-96442381D01*
X124147048Y-96440614D01*
X124173639Y-96429599D01*
X124193441Y-96421397D01*
X124414012Y-96286231D01*
X124610724Y-96118224D01*
X124778731Y-95921512D01*
X124913897Y-95700941D01*
X125012895Y-95461940D01*
X125073285Y-95210395D01*
X125093582Y-94952500D01*
X125073285Y-94694605D01*
X125012895Y-94443060D01*
X124924430Y-94229488D01*
X124913897Y-94204058D01*
X124809690Y-94034008D01*
X124778731Y-93983488D01*
X124778730Y-93983487D01*
X124778729Y-93983485D01*
X124665839Y-93851308D01*
X124610724Y-93786776D01*
X124503181Y-93694926D01*
X124414014Y-93618770D01*
X124414009Y-93618767D01*
X124193441Y-93483602D01*
X123954442Y-93384606D01*
X123954444Y-93384606D01*
X123954440Y-93384605D01*
X123954436Y-93384604D01*
X123954430Y-93384602D01*
X123702898Y-93324215D01*
X123509473Y-93308992D01*
X123445000Y-93303918D01*
X123444999Y-93303918D01*
X123187101Y-93324215D01*
X122935569Y-93384602D01*
X122935557Y-93384606D01*
X122696558Y-93483602D01*
X122475990Y-93618767D01*
X122475985Y-93618770D01*
X122279276Y-93786776D01*
X122111270Y-93983485D01*
X122111267Y-93983490D01*
X121976102Y-94204058D01*
X121877106Y-94443057D01*
X121877102Y-94443069D01*
X121816715Y-94694601D01*
X121796418Y-94952500D01*
X121816715Y-95210398D01*
X121842321Y-95317053D01*
X121838830Y-95386836D01*
X121798166Y-95443653D01*
X121733240Y-95469466D01*
X121721747Y-95470000D01*
X119692783Y-95470000D01*
X119625744Y-95450315D01*
X119579989Y-95397511D01*
X119570045Y-95328353D01*
X119599070Y-95264797D01*
X119633763Y-95236946D01*
X119762589Y-95167229D01*
X119944308Y-95025792D01*
X120100269Y-94856373D01*
X120226217Y-94663595D01*
X120318717Y-94452716D01*
X120375246Y-94229488D01*
X120394262Y-94000000D01*
X120389634Y-93944153D01*
X120380485Y-93833740D01*
X120375246Y-93770512D01*
X120318717Y-93547284D01*
X120226217Y-93336405D01*
X120210472Y-93312305D01*
X120100271Y-93143629D01*
X120042610Y-93080993D01*
X119944308Y-92974208D01*
X119944303Y-92974204D01*
X119944300Y-92974201D01*
X119781325Y-92847353D01*
X119740512Y-92790643D01*
X119736837Y-92720870D01*
X119771469Y-92660187D01*
X119833410Y-92627860D01*
X119857487Y-92625500D01*
X125997257Y-92625500D01*
X126012877Y-92627224D01*
X126012904Y-92626939D01*
X126020660Y-92627671D01*
X126020667Y-92627673D01*
X126089814Y-92625500D01*
X126119350Y-92625500D01*
X126126228Y-92624630D01*
X126132041Y-92624172D01*
X126178627Y-92622709D01*
X126197869Y-92617117D01*
X126216912Y-92613174D01*
X126236792Y-92610664D01*
X126280122Y-92593507D01*
X126285646Y-92591617D01*
X126289396Y-92590527D01*
X126330390Y-92578618D01*
X126347629Y-92568422D01*
X126365103Y-92559862D01*
X126383727Y-92552488D01*
X126383727Y-92552487D01*
X126383732Y-92552486D01*
X126421449Y-92525082D01*
X126426305Y-92521892D01*
X126466420Y-92498170D01*
X126480589Y-92483999D01*
X126495379Y-92471368D01*
X126511587Y-92459594D01*
X126541299Y-92423676D01*
X126545212Y-92419376D01*
X129544354Y-89420235D01*
X129605675Y-89386752D01*
X129664123Y-89388142D01*
X129764592Y-89415063D01*
X129952918Y-89431539D01*
X129999999Y-89435659D01*
X130000000Y-89435659D01*
X130000001Y-89435659D01*
X130039234Y-89432226D01*
X130235408Y-89415063D01*
X130463663Y-89353903D01*
X130677830Y-89254035D01*
X130871401Y-89118495D01*
X131038495Y-88951401D01*
X131174035Y-88757830D01*
X131273903Y-88543663D01*
X131335063Y-88315408D01*
X131355659Y-88080000D01*
X131335063Y-87844592D01*
X131273903Y-87616337D01*
X131174035Y-87402171D01*
X131149784Y-87367536D01*
X131038494Y-87208597D01*
X130871402Y-87041506D01*
X130871396Y-87041501D01*
X130685842Y-86911575D01*
X130642217Y-86856998D01*
X130635023Y-86787500D01*
X130666546Y-86725145D01*
X130685842Y-86708425D01*
X130867222Y-86581421D01*
X130871401Y-86578495D01*
X131038495Y-86411401D01*
X131174035Y-86217830D01*
X131273903Y-86003663D01*
X131335063Y-85775408D01*
X131355659Y-85540000D01*
X131335063Y-85304592D01*
X131275154Y-85081006D01*
X131273905Y-85076344D01*
X131273904Y-85076343D01*
X131273903Y-85076337D01*
X131174035Y-84862171D01*
X131173652Y-84861623D01*
X131038494Y-84668597D01*
X130871402Y-84501506D01*
X130871401Y-84501505D01*
X130685842Y-84371575D01*
X130685841Y-84371574D01*
X130642216Y-84316997D01*
X130635024Y-84247498D01*
X130666546Y-84185144D01*
X130685836Y-84168428D01*
X130871401Y-84038495D01*
X131038495Y-83871401D01*
X131174035Y-83677830D01*
X131273903Y-83463663D01*
X131335063Y-83235408D01*
X131355659Y-83000000D01*
X131335063Y-82764592D01*
X131273903Y-82536337D01*
X131174035Y-82322171D01*
X131150006Y-82287853D01*
X131038494Y-82128597D01*
X130871402Y-81961506D01*
X130871396Y-81961501D01*
X130685842Y-81831575D01*
X130642217Y-81776998D01*
X130635023Y-81707500D01*
X130666546Y-81645145D01*
X130685842Y-81628425D01*
X130742709Y-81588606D01*
X130871401Y-81498495D01*
X131038495Y-81331401D01*
X131174035Y-81137830D01*
X131273903Y-80923663D01*
X131335063Y-80695408D01*
X131355659Y-80460000D01*
X131335063Y-80224592D01*
X131273903Y-79996337D01*
X131174035Y-79782171D01*
X131172864Y-79780499D01*
X131038496Y-79588600D01*
X131002358Y-79552462D01*
X130916179Y-79466283D01*
X130882696Y-79404963D01*
X130887680Y-79335271D01*
X130929551Y-79279337D01*
X130960529Y-79262422D01*
X131092086Y-79213354D01*
X131092093Y-79213350D01*
X131207187Y-79127190D01*
X131207190Y-79127187D01*
X131293350Y-79012093D01*
X131293354Y-79012086D01*
X131343596Y-78877379D01*
X131343598Y-78877372D01*
X131349999Y-78817844D01*
X131350000Y-78817827D01*
X131350000Y-78170000D01*
X130613347Y-78170000D01*
X130546308Y-78150315D01*
X130500553Y-78097511D01*
X130490609Y-78028353D01*
X130494369Y-78011067D01*
X130500000Y-77991888D01*
X130500000Y-77848111D01*
X130494369Y-77828933D01*
X130494370Y-77759064D01*
X130532145Y-77700286D01*
X130595701Y-77671262D01*
X130613347Y-77670000D01*
X131349999Y-77670000D01*
X131350000Y-77022172D01*
X131349999Y-77022155D01*
X131343598Y-76962627D01*
X131343596Y-76962620D01*
X131293354Y-76827913D01*
X131293350Y-76827906D01*
X131207190Y-76712812D01*
X131207187Y-76712809D01*
X131092093Y-76626649D01*
X131092086Y-76626645D01*
X130957379Y-76576403D01*
X130957372Y-76576401D01*
X130897844Y-76570000D01*
X130250000Y-76570000D01*
X130250000Y-77307698D01*
X130230315Y-77374737D01*
X130177511Y-77420492D01*
X130108355Y-77430436D01*
X130035766Y-77420000D01*
X130035763Y-77420000D01*
X129964237Y-77420000D01*
X129964233Y-77420000D01*
X129891645Y-77430436D01*
X129822487Y-77420492D01*
X129769684Y-77374736D01*
X129750000Y-77307698D01*
X129750000Y-76570000D01*
X129102155Y-76570000D01*
X129042627Y-76576401D01*
X129042620Y-76576403D01*
X128907913Y-76626645D01*
X128907906Y-76626649D01*
X128792812Y-76712809D01*
X128792809Y-76712812D01*
X128706649Y-76827906D01*
X128706645Y-76827913D01*
X128656403Y-76962620D01*
X128656401Y-76962627D01*
X128650000Y-77022155D01*
X128650000Y-77670000D01*
X129386653Y-77670000D01*
X129453692Y-77689685D01*
X129499447Y-77742489D01*
X129509391Y-77811647D01*
X129505631Y-77828933D01*
X129500000Y-77848111D01*
X129500000Y-77991888D01*
X129505631Y-78011067D01*
X129505630Y-78080936D01*
X129467855Y-78139714D01*
X129404299Y-78168738D01*
X129386653Y-78170000D01*
X128650000Y-78170000D01*
X128650000Y-78817844D01*
X128656401Y-78877372D01*
X128656403Y-78877379D01*
X128706645Y-79012086D01*
X128706649Y-79012093D01*
X128792809Y-79127187D01*
X128792812Y-79127190D01*
X128907906Y-79213350D01*
X128907913Y-79213354D01*
X129039470Y-79262421D01*
X129095403Y-79304292D01*
X129119821Y-79369756D01*
X129104970Y-79438029D01*
X129083819Y-79466284D01*
X128961503Y-79588600D01*
X128825965Y-79782169D01*
X128825964Y-79782171D01*
X128726098Y-79996335D01*
X128726094Y-79996344D01*
X128664938Y-80224586D01*
X128664936Y-80224596D01*
X128644341Y-80459999D01*
X128644341Y-80460000D01*
X128664936Y-80695403D01*
X128664938Y-80695413D01*
X128726094Y-80923655D01*
X128726096Y-80923659D01*
X128726097Y-80923663D01*
X128810091Y-81103789D01*
X128825965Y-81137830D01*
X128825967Y-81137834D01*
X128961501Y-81331395D01*
X128961506Y-81331402D01*
X129128597Y-81498493D01*
X129128603Y-81498498D01*
X129314158Y-81628425D01*
X129357783Y-81683002D01*
X129364977Y-81752500D01*
X129333454Y-81814855D01*
X129314158Y-81831575D01*
X129128597Y-81961505D01*
X128961505Y-82128597D01*
X128825965Y-82322169D01*
X128825964Y-82322171D01*
X128726098Y-82536335D01*
X128726094Y-82536344D01*
X128664938Y-82764586D01*
X128664936Y-82764596D01*
X128644341Y-82999999D01*
X128644341Y-83000000D01*
X128664936Y-83235403D01*
X128664938Y-83235413D01*
X128726094Y-83463655D01*
X128726096Y-83463659D01*
X128726097Y-83463663D01*
X128785405Y-83590848D01*
X128825965Y-83677830D01*
X128825967Y-83677834D01*
X128961501Y-83871395D01*
X128961506Y-83871402D01*
X129128597Y-84038493D01*
X129128603Y-84038498D01*
X129314158Y-84168425D01*
X129357783Y-84223002D01*
X129364977Y-84292500D01*
X129333454Y-84354855D01*
X129314158Y-84371575D01*
X129128597Y-84501505D01*
X128961505Y-84668597D01*
X128826348Y-84861623D01*
X128771771Y-84905248D01*
X128724773Y-84914500D01*
X105542737Y-84914500D01*
X105527120Y-84912776D01*
X105527093Y-84913062D01*
X105519331Y-84912327D01*
X105450203Y-84914500D01*
X105420650Y-84914500D01*
X105419929Y-84914590D01*
X105413757Y-84915369D01*
X105407945Y-84915826D01*
X105361372Y-84917290D01*
X105361369Y-84917291D01*
X105342126Y-84922881D01*
X105323083Y-84926825D01*
X105303204Y-84929336D01*
X105303203Y-84929337D01*
X105259878Y-84946490D01*
X105254352Y-84948382D01*
X105209608Y-84961383D01*
X105209604Y-84961385D01*
X105192365Y-84971580D01*
X105174898Y-84980137D01*
X105156269Y-84987512D01*
X105156267Y-84987513D01*
X105118564Y-85014906D01*
X105113682Y-85018112D01*
X105073580Y-85041828D01*
X105059408Y-85056000D01*
X105044623Y-85068628D01*
X105028412Y-85080407D01*
X104998709Y-85116310D01*
X104994777Y-85120631D01*
X104067208Y-86048199D01*
X104054951Y-86058020D01*
X104055134Y-86058241D01*
X104049123Y-86063213D01*
X104001772Y-86113636D01*
X103980889Y-86134519D01*
X103980877Y-86134532D01*
X103976621Y-86140017D01*
X103972837Y-86144447D01*
X103940937Y-86178418D01*
X103940936Y-86178420D01*
X103931284Y-86195976D01*
X103920610Y-86212226D01*
X103908329Y-86228061D01*
X103908324Y-86228068D01*
X103889815Y-86270838D01*
X103887245Y-86276084D01*
X103864803Y-86316906D01*
X103859822Y-86336307D01*
X103853521Y-86354710D01*
X103845562Y-86373102D01*
X103845561Y-86373105D01*
X103838271Y-86419127D01*
X103837087Y-86424846D01*
X103825501Y-86469972D01*
X103825500Y-86469982D01*
X103825500Y-86490016D01*
X103823973Y-86509415D01*
X103820840Y-86529194D01*
X103820840Y-86529195D01*
X93759682Y-86529195D01*
X93791657Y-86456300D01*
X93848634Y-86231305D01*
X93848635Y-86231297D01*
X93867800Y-86000006D01*
X93867800Y-85999993D01*
X93848635Y-85768702D01*
X93848633Y-85768691D01*
X93791657Y-85543699D01*
X93698424Y-85331151D01*
X93571483Y-85136852D01*
X93571480Y-85136849D01*
X93571479Y-85136847D01*
X93414284Y-84966087D01*
X93236680Y-84827853D01*
X93195868Y-84771143D01*
X93192193Y-84701370D01*
X93226824Y-84640687D01*
X93236681Y-84632146D01*
X93414284Y-84493913D01*
X93571479Y-84323153D01*
X93698424Y-84128849D01*
X93791657Y-83916300D01*
X93848634Y-83691305D01*
X93848635Y-83691297D01*
X93867800Y-83460006D01*
X93867800Y-83459993D01*
X93848635Y-83228702D01*
X93848633Y-83228691D01*
X93791657Y-83003699D01*
X93698424Y-82791151D01*
X93571483Y-82596852D01*
X93571480Y-82596849D01*
X93571479Y-82596847D01*
X93414284Y-82426087D01*
X93371357Y-82392675D01*
X93236273Y-82287535D01*
X93195460Y-82230825D01*
X93191786Y-82161052D01*
X93226418Y-82100369D01*
X93236274Y-82091828D01*
X93261298Y-82072351D01*
X92684557Y-81495610D01*
X92651072Y-81434287D01*
X92656056Y-81364595D01*
X92697928Y-81308662D01*
X92718430Y-81296212D01*
X92718857Y-81296007D01*
X92818298Y-81203740D01*
X92840533Y-81165226D01*
X92891096Y-81117014D01*
X92959703Y-81103789D01*
X93024568Y-81129756D01*
X93035600Y-81139547D01*
X93613686Y-81717634D01*
X93697984Y-81588606D01*
X93791182Y-81376135D01*
X93848138Y-81151218D01*
X93867298Y-80920005D01*
X93867298Y-80919994D01*
X93848138Y-80688781D01*
X93791182Y-80463864D01*
X93697983Y-80251390D01*
X93613686Y-80122364D01*
X93037684Y-80698367D01*
X92976361Y-80731852D01*
X92906669Y-80726868D01*
X92853055Y-80687998D01*
X92772035Y-80586400D01*
X92772033Y-80586399D01*
X92699775Y-80537134D01*
X92655473Y-80483106D01*
X92647415Y-80413702D01*
X92678157Y-80350959D01*
X92681946Y-80347000D01*
X93261299Y-79767647D01*
X93236275Y-79748171D01*
X93195461Y-79691461D01*
X93191786Y-79621688D01*
X93226416Y-79561004D01*
X93236260Y-79552473D01*
X93414284Y-79413913D01*
X93571479Y-79243153D01*
X93646797Y-79127870D01*
X107109500Y-79127870D01*
X107109501Y-79127876D01*
X107115908Y-79187483D01*
X107166202Y-79322328D01*
X107166206Y-79322335D01*
X107252452Y-79437544D01*
X107252455Y-79437547D01*
X107367664Y-79523793D01*
X107367671Y-79523797D01*
X107502517Y-79574091D01*
X107502516Y-79574091D01*
X107509444Y-79574835D01*
X107562127Y-79580500D01*
X109357872Y-79580499D01*
X109417483Y-79574091D01*
X109552331Y-79523796D01*
X109667546Y-79437546D01*
X109753796Y-79322331D01*
X109802810Y-79190916D01*
X109844681Y-79134984D01*
X109910145Y-79110566D01*
X109978418Y-79125417D01*
X110006672Y-79146569D01*
X110128599Y-79268495D01*
X110213404Y-79327876D01*
X110322165Y-79404032D01*
X110322167Y-79404033D01*
X110322170Y-79404035D01*
X110536337Y-79503903D01*
X110764592Y-79565063D01*
X110941034Y-79580500D01*
X110999999Y-79585659D01*
X111000000Y-79585659D01*
X111000001Y-79585659D01*
X111058966Y-79580500D01*
X111235408Y-79565063D01*
X111463663Y-79503903D01*
X111677830Y-79404035D01*
X111871401Y-79268495D01*
X112038495Y-79101401D01*
X112168730Y-78915405D01*
X112223307Y-78871781D01*
X112292805Y-78864587D01*
X112355160Y-78896110D01*
X112371879Y-78915405D01*
X112501890Y-79101078D01*
X112668917Y-79268105D01*
X112862421Y-79403600D01*
X113076507Y-79503429D01*
X113076516Y-79503433D01*
X113290000Y-79560634D01*
X113290000Y-78842301D01*
X113309685Y-78775262D01*
X113362489Y-78729507D01*
X113431647Y-78719563D01*
X113504237Y-78730000D01*
X113504238Y-78730000D01*
X113575762Y-78730000D01*
X113575763Y-78730000D01*
X113648353Y-78719563D01*
X113717512Y-78729507D01*
X113770315Y-78775262D01*
X113790000Y-78842301D01*
X113790000Y-79560633D01*
X114003483Y-79503433D01*
X114003492Y-79503429D01*
X114217578Y-79403600D01*
X114411082Y-79268105D01*
X114578105Y-79101082D01*
X114713600Y-78907578D01*
X114813429Y-78693492D01*
X114813432Y-78693486D01*
X114870636Y-78480000D01*
X114153347Y-78480000D01*
X114086308Y-78460315D01*
X114040553Y-78407511D01*
X114030609Y-78338353D01*
X114034369Y-78321067D01*
X114040000Y-78301888D01*
X114040000Y-78158111D01*
X114034369Y-78138933D01*
X114034370Y-78069064D01*
X114072145Y-78010286D01*
X114135701Y-77981262D01*
X114153347Y-77980000D01*
X114870636Y-77980000D01*
X114870635Y-77979999D01*
X114813432Y-77766513D01*
X114813429Y-77766507D01*
X114713600Y-77552422D01*
X114713599Y-77552420D01*
X114578113Y-77358926D01*
X114578108Y-77358920D01*
X114411082Y-77191894D01*
X114217578Y-77056399D01*
X114003492Y-76956570D01*
X114003486Y-76956567D01*
X113790000Y-76899364D01*
X113790000Y-77617698D01*
X113770315Y-77684737D01*
X113717511Y-77730492D01*
X113648355Y-77740436D01*
X113575766Y-77730000D01*
X113575763Y-77730000D01*
X113504237Y-77730000D01*
X113504233Y-77730000D01*
X113431645Y-77740436D01*
X113362487Y-77730492D01*
X113309684Y-77684736D01*
X113290000Y-77617698D01*
X113290000Y-76899364D01*
X113289999Y-76899364D01*
X113076513Y-76956567D01*
X113076507Y-76956570D01*
X112862422Y-77056399D01*
X112862420Y-77056400D01*
X112668926Y-77191886D01*
X112668920Y-77191891D01*
X112501891Y-77358920D01*
X112501890Y-77358922D01*
X112371880Y-77544595D01*
X112317303Y-77588219D01*
X112247804Y-77595412D01*
X112185450Y-77563890D01*
X112168730Y-77544594D01*
X112038494Y-77358597D01*
X111871402Y-77191506D01*
X111871395Y-77191501D01*
X111866536Y-77188099D01*
X111794518Y-77137671D01*
X111677834Y-77055967D01*
X111677830Y-77055965D01*
X111635457Y-77036206D01*
X111463663Y-76956097D01*
X111463659Y-76956096D01*
X111463655Y-76956094D01*
X111235413Y-76894938D01*
X111235403Y-76894936D01*
X111000001Y-76874341D01*
X110999999Y-76874341D01*
X110764596Y-76894936D01*
X110764586Y-76894938D01*
X110536344Y-76956094D01*
X110536335Y-76956098D01*
X110322171Y-77055964D01*
X110322169Y-77055965D01*
X110128600Y-77191503D01*
X110006673Y-77313430D01*
X109945350Y-77346914D01*
X109875658Y-77341930D01*
X109819725Y-77300058D01*
X109802810Y-77269081D01*
X109753797Y-77137671D01*
X109753793Y-77137664D01*
X109667547Y-77022455D01*
X109667544Y-77022452D01*
X109552335Y-76936206D01*
X109552328Y-76936202D01*
X109417482Y-76885908D01*
X109417483Y-76885908D01*
X109357883Y-76879501D01*
X109357881Y-76879500D01*
X109357873Y-76879500D01*
X109357864Y-76879500D01*
X107562129Y-76879500D01*
X107562123Y-76879501D01*
X107502516Y-76885908D01*
X107367671Y-76936202D01*
X107367664Y-76936206D01*
X107252455Y-77022452D01*
X107252452Y-77022455D01*
X107166206Y-77137664D01*
X107166202Y-77137671D01*
X107115908Y-77272517D01*
X107109501Y-77332116D01*
X107109500Y-77332135D01*
X107109500Y-79127870D01*
X93646797Y-79127870D01*
X93698424Y-79048849D01*
X93791657Y-78836300D01*
X93848634Y-78611305D01*
X93859514Y-78480000D01*
X93867800Y-78380006D01*
X93867800Y-78379993D01*
X93848635Y-78148702D01*
X93848633Y-78148691D01*
X93791657Y-77923699D01*
X93698424Y-77711151D01*
X93571483Y-77516852D01*
X93571480Y-77516849D01*
X93571479Y-77516847D01*
X93414284Y-77346087D01*
X93414279Y-77346083D01*
X93414277Y-77346081D01*
X93231134Y-77203535D01*
X93231128Y-77203531D01*
X93027004Y-77093064D01*
X93026995Y-77093061D01*
X92807484Y-77017702D01*
X92616950Y-76985908D01*
X92578549Y-76979500D01*
X92346451Y-76979500D01*
X92308050Y-76985908D01*
X92117515Y-77017702D01*
X91898004Y-77093061D01*
X91897995Y-77093064D01*
X91693871Y-77203531D01*
X91693865Y-77203535D01*
X91510722Y-77346081D01*
X91510719Y-77346084D01*
X91510716Y-77346086D01*
X91510716Y-77346087D01*
X91486386Y-77372517D01*
X91353516Y-77516852D01*
X91226575Y-77711151D01*
X91133342Y-77923699D01*
X91076366Y-78148691D01*
X91076364Y-78148702D01*
X91057200Y-78379993D01*
X91057200Y-78380006D01*
X91076364Y-78611297D01*
X91076366Y-78611308D01*
X91133342Y-78836300D01*
X91226575Y-79048848D01*
X91353516Y-79243147D01*
X91353519Y-79243151D01*
X91353521Y-79243153D01*
X91510716Y-79413913D01*
X91651896Y-79523797D01*
X91688725Y-79552462D01*
X91729538Y-79609173D01*
X91733213Y-79678946D01*
X91698582Y-79739629D01*
X91688723Y-79748171D01*
X91663700Y-79767645D01*
X91663700Y-79767647D01*
X92240442Y-80344389D01*
X92273927Y-80405712D01*
X92268943Y-80475404D01*
X92227071Y-80531337D01*
X92206573Y-80543785D01*
X92206146Y-80543990D01*
X92206145Y-80543990D01*
X92106702Y-80636260D01*
X92106699Y-80636264D01*
X92084467Y-80674771D01*
X92033900Y-80722987D01*
X91965293Y-80736209D01*
X91900428Y-80710241D01*
X91889399Y-80700452D01*
X91311312Y-80122365D01*
X91227016Y-80251391D01*
X91227014Y-80251395D01*
X91133817Y-80463864D01*
X91076861Y-80688781D01*
X91057702Y-80919994D01*
X91057702Y-80920005D01*
X91076861Y-81151218D01*
X91133817Y-81376135D01*
X91227016Y-81588609D01*
X91311311Y-81717633D01*
X91887314Y-81141631D01*
X91948637Y-81108146D01*
X92018328Y-81113130D01*
X92071943Y-81152000D01*
X92152964Y-81253599D01*
X92152966Y-81253600D01*
X92225223Y-81302865D01*
X92269525Y-81356894D01*
X92277583Y-81426297D01*
X92246840Y-81489040D01*
X92243052Y-81492999D01*
X91663699Y-82072351D01*
X91688724Y-82091828D01*
X91729538Y-82148538D01*
X91733213Y-82218311D01*
X91698583Y-82278995D01*
X91688725Y-82287536D01*
X91510722Y-82426081D01*
X91510719Y-82426084D01*
X91353516Y-82596852D01*
X91234958Y-82778321D01*
X91181811Y-82823678D01*
X91131149Y-82834500D01*
X78553851Y-82834500D01*
X78486812Y-82814815D01*
X78450042Y-82778321D01*
X78331483Y-82596852D01*
X78331480Y-82596849D01*
X78331479Y-82596847D01*
X78174284Y-82426087D01*
X77996680Y-82287853D01*
X77955868Y-82231143D01*
X77952193Y-82161370D01*
X77986824Y-82100687D01*
X77996681Y-82092146D01*
X78022114Y-82072351D01*
X78174284Y-81953913D01*
X78331479Y-81783153D01*
X78458424Y-81588849D01*
X78551657Y-81376300D01*
X78608634Y-81151305D01*
X78608635Y-81151297D01*
X78627800Y-80920006D01*
X78627800Y-80919993D01*
X78608635Y-80688702D01*
X78608633Y-80688691D01*
X78551657Y-80463699D01*
X78458424Y-80251151D01*
X78331483Y-80056852D01*
X78331480Y-80056849D01*
X78331479Y-80056847D01*
X78236695Y-79953884D01*
X78205775Y-79891232D01*
X78213635Y-79821806D01*
X78257783Y-79767651D01*
X78284595Y-79753722D01*
X78364826Y-79723798D01*
X78364826Y-79723797D01*
X78364831Y-79723796D01*
X78480046Y-79637546D01*
X78566296Y-79522331D01*
X78616591Y-79387483D01*
X78623000Y-79327873D01*
X78622999Y-77432128D01*
X78616591Y-77372517D01*
X78614001Y-77365574D01*
X78566297Y-77237671D01*
X78566293Y-77237664D01*
X78480047Y-77122455D01*
X78480044Y-77122452D01*
X78364835Y-77036206D01*
X78364828Y-77036202D01*
X78229982Y-76985908D01*
X78229983Y-76985908D01*
X78170383Y-76979501D01*
X78170381Y-76979500D01*
X78170373Y-76979500D01*
X78170364Y-76979500D01*
X76274629Y-76979500D01*
X76274623Y-76979501D01*
X76215016Y-76985908D01*
X76080171Y-77036202D01*
X76080164Y-77036206D01*
X75964955Y-77122452D01*
X75964952Y-77122455D01*
X75878706Y-77237664D01*
X75878702Y-77237671D01*
X75828408Y-77372517D01*
X75823251Y-77420492D01*
X75822001Y-77432123D01*
X75822000Y-77432135D01*
X75822000Y-79327870D01*
X75822001Y-79327876D01*
X75828408Y-79387483D01*
X75878702Y-79522328D01*
X75878706Y-79522335D01*
X75964952Y-79637544D01*
X75964955Y-79637547D01*
X76080164Y-79723793D01*
X76080173Y-79723798D01*
X76160404Y-79753722D01*
X76216338Y-79795593D01*
X76240756Y-79861057D01*
X76225905Y-79929330D01*
X76208302Y-79953886D01*
X76113519Y-80056849D01*
X75986575Y-80251151D01*
X75893342Y-80463699D01*
X75836366Y-80688691D01*
X75836364Y-80688702D01*
X75817200Y-80919993D01*
X75817200Y-80920006D01*
X75836364Y-81151297D01*
X75836366Y-81151308D01*
X75893342Y-81376300D01*
X75986575Y-81588848D01*
X76113516Y-81783147D01*
X76113519Y-81783151D01*
X76113521Y-81783153D01*
X76270716Y-81953913D01*
X76270719Y-81953915D01*
X76270722Y-81953918D01*
X76448318Y-82092147D01*
X76489131Y-82148857D01*
X76492806Y-82218630D01*
X76458174Y-82279313D01*
X76448318Y-82287853D01*
X76270722Y-82426081D01*
X76270719Y-82426084D01*
X76113516Y-82596852D01*
X75986575Y-82791151D01*
X75893342Y-83003699D01*
X75836366Y-83228691D01*
X75836364Y-83228702D01*
X75817200Y-83459993D01*
X75817200Y-83460006D01*
X75836364Y-83691297D01*
X75836366Y-83691308D01*
X75893342Y-83916300D01*
X75986575Y-84128848D01*
X76113516Y-84323147D01*
X76113519Y-84323151D01*
X76113521Y-84323153D01*
X76270716Y-84493913D01*
X76448319Y-84632146D01*
X76448725Y-84632462D01*
X76489538Y-84689173D01*
X76493213Y-84758946D01*
X76458582Y-84819629D01*
X76448723Y-84828171D01*
X76423700Y-84847645D01*
X76423700Y-84847647D01*
X77000442Y-85424389D01*
X77033927Y-85485712D01*
X77028943Y-85555404D01*
X76987071Y-85611337D01*
X76966573Y-85623785D01*
X76966146Y-85623990D01*
X76966145Y-85623990D01*
X76866702Y-85716260D01*
X76866699Y-85716264D01*
X76844467Y-85754771D01*
X76793900Y-85802987D01*
X76725293Y-85816209D01*
X76660428Y-85790241D01*
X76649399Y-85780452D01*
X76071312Y-85202365D01*
X75987016Y-85331391D01*
X75987014Y-85331395D01*
X75893817Y-85543864D01*
X75836861Y-85768781D01*
X75817702Y-85999994D01*
X75817702Y-86000005D01*
X75836861Y-86231218D01*
X75893817Y-86456135D01*
X75987016Y-86668609D01*
X76071311Y-86797633D01*
X76647314Y-86221631D01*
X76708637Y-86188146D01*
X76778328Y-86193130D01*
X76831943Y-86232000D01*
X76912964Y-86333599D01*
X76912966Y-86333600D01*
X76985223Y-86382865D01*
X77029525Y-86436894D01*
X77037583Y-86506297D01*
X77006840Y-86569040D01*
X77003052Y-86572999D01*
X76423699Y-87152351D01*
X76448724Y-87171828D01*
X76489538Y-87228538D01*
X76493213Y-87298311D01*
X76458583Y-87358995D01*
X76448725Y-87367536D01*
X76270722Y-87506081D01*
X76270719Y-87506084D01*
X76113516Y-87676852D01*
X75986575Y-87871151D01*
X75893342Y-88083699D01*
X75836366Y-88308691D01*
X75836364Y-88308702D01*
X75817200Y-88539993D01*
X75817200Y-88540006D01*
X75836364Y-88771297D01*
X75836366Y-88771308D01*
X75893342Y-88996300D01*
X75986575Y-89208848D01*
X76113516Y-89403147D01*
X76113519Y-89403151D01*
X76113521Y-89403153D01*
X76270716Y-89573913D01*
X76270719Y-89573915D01*
X76270722Y-89573918D01*
X76448318Y-89712147D01*
X76489131Y-89768857D01*
X76492806Y-89838630D01*
X76458174Y-89899313D01*
X76448318Y-89907853D01*
X76270722Y-90046081D01*
X76270719Y-90046084D01*
X76113516Y-90216852D01*
X75986575Y-90411151D01*
X75893342Y-90623699D01*
X75836366Y-90848691D01*
X75836364Y-90848702D01*
X75817200Y-91079993D01*
X75817200Y-91080006D01*
X75836364Y-91311297D01*
X75836366Y-91311308D01*
X75893342Y-91536300D01*
X75986575Y-91748848D01*
X76113516Y-91943147D01*
X76113519Y-91943151D01*
X76113521Y-91943153D01*
X76270716Y-92113913D01*
X76270719Y-92113915D01*
X76270722Y-92113918D01*
X76448318Y-92252147D01*
X76489131Y-92308857D01*
X76492806Y-92378630D01*
X76458174Y-92439313D01*
X76448318Y-92447853D01*
X76270722Y-92586081D01*
X76270719Y-92586084D01*
X76270716Y-92586086D01*
X76270716Y-92586087D01*
X76232434Y-92627673D01*
X76113516Y-92756852D01*
X75986575Y-92951151D01*
X75893342Y-93163699D01*
X75836366Y-93388691D01*
X75836364Y-93388702D01*
X75817200Y-93619993D01*
X75817200Y-93620006D01*
X75836364Y-93851297D01*
X75836366Y-93851308D01*
X75893342Y-94076300D01*
X75986575Y-94288848D01*
X76113516Y-94483147D01*
X76113519Y-94483151D01*
X76113521Y-94483153D01*
X76270716Y-94653913D01*
X76270719Y-94653915D01*
X76270722Y-94653918D01*
X76448318Y-94792147D01*
X76489131Y-94848857D01*
X76492806Y-94918630D01*
X76458174Y-94979313D01*
X76448318Y-94987853D01*
X76270722Y-95126081D01*
X76270719Y-95126084D01*
X76270716Y-95126086D01*
X76270716Y-95126087D01*
X76233231Y-95166807D01*
X76113516Y-95296852D01*
X75986575Y-95491151D01*
X75893342Y-95703699D01*
X75836366Y-95928691D01*
X75836364Y-95928702D01*
X75817200Y-96159993D01*
X75817200Y-96160006D01*
X75836364Y-96391297D01*
X75836366Y-96391308D01*
X75893342Y-96616300D01*
X75986575Y-96828848D01*
X76113516Y-97023147D01*
X76113519Y-97023151D01*
X76113521Y-97023153D01*
X76270716Y-97193913D01*
X76270719Y-97193915D01*
X76270722Y-97193918D01*
X76448318Y-97332147D01*
X76489131Y-97388857D01*
X76492806Y-97458630D01*
X76458174Y-97519313D01*
X76448318Y-97527853D01*
X76270722Y-97666081D01*
X76270719Y-97666084D01*
X76113516Y-97836852D01*
X75986575Y-98031151D01*
X75893342Y-98243699D01*
X75836366Y-98468691D01*
X75836364Y-98468702D01*
X75817200Y-98699993D01*
X75817200Y-98700006D01*
X75836364Y-98931297D01*
X75836366Y-98931308D01*
X75893342Y-99156300D01*
X75986575Y-99368848D01*
X76113516Y-99563147D01*
X76113519Y-99563151D01*
X76113521Y-99563153D01*
X76270716Y-99733913D01*
X76270719Y-99733915D01*
X76270722Y-99733918D01*
X76448318Y-99872147D01*
X76489131Y-99928857D01*
X76492806Y-99998630D01*
X76458174Y-100059313D01*
X76448318Y-100067853D01*
X76270722Y-100206081D01*
X76270719Y-100206084D01*
X76113516Y-100376852D01*
X75986575Y-100571151D01*
X75893342Y-100783699D01*
X75836366Y-101008691D01*
X75836364Y-101008702D01*
X75817200Y-101239993D01*
X75817200Y-101240006D01*
X75836364Y-101471297D01*
X75836366Y-101471308D01*
X75893342Y-101696300D01*
X75986575Y-101908848D01*
X76113516Y-102103147D01*
X76113519Y-102103151D01*
X76113521Y-102103153D01*
X76270716Y-102273913D01*
X76270719Y-102273915D01*
X76270722Y-102273918D01*
X76448318Y-102412147D01*
X76489131Y-102468857D01*
X76492806Y-102538630D01*
X76458174Y-102599313D01*
X76448318Y-102607853D01*
X76270722Y-102746081D01*
X76270719Y-102746084D01*
X76113516Y-102916852D01*
X75986575Y-103111151D01*
X75893342Y-103323699D01*
X75836366Y-103548691D01*
X75836364Y-103548702D01*
X75817200Y-103779993D01*
X75817200Y-103780006D01*
X75836364Y-104011297D01*
X75836366Y-104011308D01*
X75893342Y-104236300D01*
X75986575Y-104448848D01*
X76113516Y-104643147D01*
X76113519Y-104643151D01*
X76113521Y-104643153D01*
X76270716Y-104813913D01*
X76448318Y-104952146D01*
X76489131Y-105008856D01*
X76492806Y-105078629D01*
X76458175Y-105139312D01*
X76448319Y-105147852D01*
X76270718Y-105286085D01*
X76113516Y-105456852D01*
X75986575Y-105651151D01*
X75893342Y-105863699D01*
X75836366Y-106088691D01*
X75836364Y-106088702D01*
X75817200Y-106319993D01*
X75817200Y-106320006D01*
X75836364Y-106551297D01*
X75836366Y-106551308D01*
X75893342Y-106776300D01*
X75986575Y-106988848D01*
X76113516Y-107183147D01*
X76113519Y-107183151D01*
X76113521Y-107183153D01*
X76270716Y-107353913D01*
X76448318Y-107492146D01*
X76489131Y-107548856D01*
X76492806Y-107618629D01*
X76458175Y-107679312D01*
X76448319Y-107687852D01*
X76270718Y-107826085D01*
X76113516Y-107996852D01*
X75986575Y-108191151D01*
X75893342Y-108403699D01*
X75836366Y-108628691D01*
X75836364Y-108628702D01*
X75817200Y-108859993D01*
X75817200Y-108860006D01*
X75836364Y-109091297D01*
X75836366Y-109091308D01*
X75893342Y-109316300D01*
X75986575Y-109528848D01*
X76113516Y-109723147D01*
X76113519Y-109723151D01*
X76113521Y-109723153D01*
X76270716Y-109893913D01*
X76270719Y-109893915D01*
X76270722Y-109893918D01*
X76448318Y-110032147D01*
X76489131Y-110088857D01*
X76492806Y-110158630D01*
X76458174Y-110219313D01*
X76448318Y-110227853D01*
X76270722Y-110366081D01*
X76270719Y-110366084D01*
X76113516Y-110536852D01*
X75986575Y-110731151D01*
X75893342Y-110943699D01*
X75836366Y-111168691D01*
X75836364Y-111168702D01*
X75817200Y-111399993D01*
X75817200Y-111400006D01*
X75836364Y-111631297D01*
X75836366Y-111631308D01*
X75893342Y-111856300D01*
X75986575Y-112068848D01*
X76113516Y-112263147D01*
X76113519Y-112263151D01*
X76113521Y-112263153D01*
X76270716Y-112433913D01*
X76270719Y-112433915D01*
X76270722Y-112433918D01*
X76448318Y-112572147D01*
X76489131Y-112628857D01*
X76492806Y-112698630D01*
X76458174Y-112759313D01*
X76448318Y-112767853D01*
X76270722Y-112906081D01*
X76270719Y-112906084D01*
X76270716Y-112906086D01*
X76270716Y-112906087D01*
X76233231Y-112946807D01*
X76113516Y-113076852D01*
X75986575Y-113271151D01*
X75893342Y-113483699D01*
X75836366Y-113708691D01*
X75836364Y-113708702D01*
X75817200Y-113939993D01*
X75817200Y-113940006D01*
X75836364Y-114171297D01*
X75836366Y-114171308D01*
X75893342Y-114396300D01*
X75986575Y-114608848D01*
X76113516Y-114803147D01*
X76113519Y-114803151D01*
X76113521Y-114803153D01*
X76270716Y-114973913D01*
X76270719Y-114973915D01*
X76270722Y-114973918D01*
X76453865Y-115116464D01*
X76453871Y-115116468D01*
X76453874Y-115116470D01*
X76500024Y-115141445D01*
X76549614Y-115190665D01*
X76564722Y-115258882D01*
X76540551Y-115324437D01*
X76484776Y-115366518D01*
X76441006Y-115374500D01*
X62310452Y-115374500D01*
X62243413Y-115354815D01*
X62222771Y-115338181D01*
X50938960Y-104054369D01*
X50905475Y-103993046D01*
X50903323Y-103979668D01*
X50885674Y-103811744D01*
X50827179Y-103631716D01*
X50732533Y-103467784D01*
X50605871Y-103327112D01*
X50601175Y-103323700D01*
X50452734Y-103215851D01*
X50452729Y-103215848D01*
X50279807Y-103138857D01*
X50279802Y-103138855D01*
X50134001Y-103107865D01*
X50094646Y-103099500D01*
X49905354Y-103099500D01*
X49872897Y-103106398D01*
X49720197Y-103138855D01*
X49720192Y-103138857D01*
X49547270Y-103215848D01*
X49547265Y-103215851D01*
X49394129Y-103327111D01*
X49267466Y-103467785D01*
X49172821Y-103631715D01*
X49172818Y-103631722D01*
X49118157Y-103799952D01*
X49114326Y-103811744D01*
X49094540Y-104000000D01*
X48198670Y-104000000D01*
X48273903Y-103838663D01*
X48335063Y-103610408D01*
X48355659Y-103375000D01*
X48335063Y-103139592D01*
X48273903Y-102911337D01*
X48174035Y-102697171D01*
X48138060Y-102645792D01*
X48038494Y-102503597D01*
X47871402Y-102336506D01*
X47871395Y-102336501D01*
X47677834Y-102200967D01*
X47677830Y-102200965D01*
X47606727Y-102167809D01*
X47463663Y-102101097D01*
X47463659Y-102101096D01*
X47463655Y-102101094D01*
X47235413Y-102039938D01*
X47235403Y-102039936D01*
X47000001Y-102019341D01*
X46999999Y-102019341D01*
X46764596Y-102039936D01*
X46764586Y-102039938D01*
X46536344Y-102101094D01*
X46536335Y-102101098D01*
X46322171Y-102200964D01*
X46322169Y-102200965D01*
X46128600Y-102336503D01*
X46006284Y-102458819D01*
X45944961Y-102492303D01*
X45875269Y-102487319D01*
X45819336Y-102445447D01*
X45802421Y-102414470D01*
X45753354Y-102282913D01*
X45753350Y-102282906D01*
X45667190Y-102167812D01*
X45667187Y-102167809D01*
X45552093Y-102081649D01*
X45552086Y-102081645D01*
X45417379Y-102031403D01*
X45417372Y-102031401D01*
X45357844Y-102025000D01*
X44710000Y-102025000D01*
X44710000Y-102762698D01*
X44690315Y-102829737D01*
X44637511Y-102875492D01*
X44568355Y-102885436D01*
X44495766Y-102875000D01*
X44495763Y-102875000D01*
X44424237Y-102875000D01*
X44351646Y-102885437D01*
X44282487Y-102875493D01*
X44229683Y-102829738D01*
X44209999Y-102762699D01*
X44210000Y-102025000D01*
X43562155Y-102025000D01*
X43502627Y-102031401D01*
X43502620Y-102031403D01*
X43367913Y-102081645D01*
X43367906Y-102081649D01*
X43252812Y-102167809D01*
X43252809Y-102167812D01*
X43166649Y-102282906D01*
X43166645Y-102282913D01*
X43116403Y-102417620D01*
X43116401Y-102417627D01*
X43110000Y-102477155D01*
X43110000Y-103125000D01*
X43846653Y-103125000D01*
X43913692Y-103144685D01*
X43959447Y-103197489D01*
X43969391Y-103266647D01*
X43965631Y-103283933D01*
X43960000Y-103303111D01*
X43960000Y-103446888D01*
X43965631Y-103466067D01*
X43965630Y-103535936D01*
X43927855Y-103594714D01*
X43864299Y-103623738D01*
X43846653Y-103625000D01*
X43110000Y-103625000D01*
X43110000Y-104272844D01*
X43116401Y-104332372D01*
X43116403Y-104332379D01*
X43166645Y-104467086D01*
X43166649Y-104467093D01*
X43252809Y-104582187D01*
X43252812Y-104582190D01*
X43367906Y-104668350D01*
X43367913Y-104668354D01*
X43499470Y-104717421D01*
X43555403Y-104759292D01*
X43579821Y-104824756D01*
X43564970Y-104893029D01*
X43543819Y-104921284D01*
X43421503Y-105043600D01*
X43285965Y-105237169D01*
X43285964Y-105237171D01*
X43186098Y-105451335D01*
X43186094Y-105451344D01*
X43124938Y-105679586D01*
X43124936Y-105679596D01*
X43104341Y-105914999D01*
X43104341Y-105915000D01*
X43124936Y-106150403D01*
X43124938Y-106150413D01*
X43186094Y-106378655D01*
X43186096Y-106378659D01*
X43186097Y-106378663D01*
X43190000Y-106387032D01*
X43285965Y-106592830D01*
X43285967Y-106592834D01*
X43350380Y-106684824D01*
X43421501Y-106786396D01*
X43421506Y-106786402D01*
X43588597Y-106953493D01*
X43588603Y-106953498D01*
X43774158Y-107083425D01*
X43817783Y-107138002D01*
X43824977Y-107207500D01*
X43793454Y-107269855D01*
X43774158Y-107286575D01*
X43588597Y-107416505D01*
X43421505Y-107583597D01*
X43285965Y-107777169D01*
X43285964Y-107777171D01*
X43186098Y-107991335D01*
X43186094Y-107991344D01*
X43124938Y-108219586D01*
X43124936Y-108219596D01*
X43104341Y-108454999D01*
X43104341Y-108455000D01*
X43124936Y-108690403D01*
X43124938Y-108690413D01*
X43186094Y-108918655D01*
X43186096Y-108918659D01*
X43186097Y-108918663D01*
X43190000Y-108927032D01*
X43285965Y-109132830D01*
X43285967Y-109132834D01*
X43394281Y-109287521D01*
X43421501Y-109326396D01*
X43421506Y-109326402D01*
X43588597Y-109493493D01*
X43588603Y-109493498D01*
X43774158Y-109623425D01*
X43817783Y-109678002D01*
X43824977Y-109747500D01*
X43793454Y-109809855D01*
X43774158Y-109826575D01*
X43588597Y-109956505D01*
X43421505Y-110123597D01*
X43285965Y-110317169D01*
X43285964Y-110317171D01*
X43186098Y-110531335D01*
X43186094Y-110531344D01*
X43124938Y-110759586D01*
X43124936Y-110759596D01*
X43104341Y-110994999D01*
X43104341Y-110995000D01*
X34000500Y-110995000D01*
X34000500Y-95240006D01*
X53057200Y-95240006D01*
X53076364Y-95471297D01*
X53076366Y-95471308D01*
X53133342Y-95696300D01*
X53226575Y-95908848D01*
X53257908Y-95956807D01*
X53278096Y-96023697D01*
X53258915Y-96090882D01*
X53228411Y-96123894D01*
X53204952Y-96141455D01*
X53118706Y-96256664D01*
X53118702Y-96256671D01*
X53068408Y-96391517D01*
X53065196Y-96421397D01*
X53062001Y-96451123D01*
X53062000Y-96451135D01*
X53062000Y-98346870D01*
X53062001Y-98346876D01*
X53068408Y-98406483D01*
X53118702Y-98541328D01*
X53118706Y-98541335D01*
X53204952Y-98656544D01*
X53204955Y-98656547D01*
X53320164Y-98742793D01*
X53320171Y-98742797D01*
X53455017Y-98793091D01*
X53455016Y-98793091D01*
X53461944Y-98793835D01*
X53514627Y-98799500D01*
X55410372Y-98799499D01*
X55469983Y-98793091D01*
X55604831Y-98742796D01*
X55720046Y-98656546D01*
X55806296Y-98541331D01*
X55856591Y-98406483D01*
X55863000Y-98346873D01*
X55862999Y-96451128D01*
X55856591Y-96391517D01*
X55817322Y-96286232D01*
X55806297Y-96256671D01*
X55806293Y-96256664D01*
X55720047Y-96141455D01*
X55720046Y-96141454D01*
X55696587Y-96123892D01*
X55654717Y-96067958D01*
X55649734Y-95998266D01*
X55667093Y-95956804D01*
X55698423Y-95908851D01*
X55791657Y-95696300D01*
X55848633Y-95471308D01*
X55848635Y-95471297D01*
X55867800Y-95240006D01*
X55867800Y-95239993D01*
X55848635Y-95008702D01*
X55848633Y-95008691D01*
X55791657Y-94783699D01*
X55698424Y-94571151D01*
X55571483Y-94376852D01*
X55571480Y-94376849D01*
X55571479Y-94376847D01*
X55449628Y-94244480D01*
X55418707Y-94181828D01*
X55426567Y-94112402D01*
X55449627Y-94076520D01*
X55571479Y-93944153D01*
X55698424Y-93749849D01*
X55791657Y-93537300D01*
X55848634Y-93312305D01*
X55857085Y-93210313D01*
X55867800Y-93081006D01*
X55867800Y-93080993D01*
X55848635Y-92849702D01*
X55848633Y-92849691D01*
X55791657Y-92624699D01*
X55698424Y-92412151D01*
X55571483Y-92217852D01*
X55571480Y-92217849D01*
X55571479Y-92217847D01*
X55449628Y-92085480D01*
X55418707Y-92022828D01*
X55426567Y-91953402D01*
X55449627Y-91917520D01*
X55571479Y-91785153D01*
X55698424Y-91590849D01*
X55791657Y-91378300D01*
X55848634Y-91153305D01*
X55848635Y-91153297D01*
X55867800Y-90922006D01*
X55867800Y-90921993D01*
X55848635Y-90690702D01*
X55848633Y-90690691D01*
X55791657Y-90465699D01*
X55698424Y-90253151D01*
X55571483Y-90058852D01*
X55571480Y-90058849D01*
X55571479Y-90058847D01*
X55414284Y-89888087D01*
X55414279Y-89888083D01*
X55414277Y-89888081D01*
X55231134Y-89745535D01*
X55231128Y-89745531D01*
X55027004Y-89635064D01*
X55026995Y-89635061D01*
X54807484Y-89559702D01*
X54635782Y-89531050D01*
X54578549Y-89521500D01*
X54346451Y-89521500D01*
X54300664Y-89529140D01*
X54117515Y-89559702D01*
X53898004Y-89635061D01*
X53897995Y-89635064D01*
X53693871Y-89745531D01*
X53693865Y-89745535D01*
X53510722Y-89888081D01*
X53510719Y-89888084D01*
X53353516Y-90058852D01*
X53226575Y-90253151D01*
X53133342Y-90465699D01*
X53076366Y-90690691D01*
X53076364Y-90690702D01*
X53057200Y-90921993D01*
X53057200Y-90922006D01*
X53076364Y-91153297D01*
X53076366Y-91153308D01*
X53133342Y-91378300D01*
X53226575Y-91590848D01*
X53353516Y-91785147D01*
X53353519Y-91785151D01*
X53353521Y-91785153D01*
X53475370Y-91917517D01*
X53506292Y-91980171D01*
X53498432Y-92049597D01*
X53475371Y-92085481D01*
X53395933Y-92171774D01*
X53353521Y-92217847D01*
X53353519Y-92217848D01*
X53353516Y-92217853D01*
X53226575Y-92412151D01*
X53133342Y-92624699D01*
X53076366Y-92849691D01*
X53076364Y-92849702D01*
X53057200Y-93080993D01*
X53057200Y-93081006D01*
X53076364Y-93312297D01*
X53076366Y-93312308D01*
X53133342Y-93537300D01*
X53226575Y-93749848D01*
X53292855Y-93851297D01*
X53353521Y-93944153D01*
X53389729Y-93983485D01*
X53475370Y-94076518D01*
X53506292Y-94139173D01*
X53498431Y-94208599D01*
X53475370Y-94244482D01*
X53353519Y-94376849D01*
X53226575Y-94571151D01*
X53133342Y-94783699D01*
X53076366Y-95008691D01*
X53076364Y-95008702D01*
X53057200Y-95239993D01*
X53057200Y-95240006D01*
X34000500Y-95240006D01*
X34000500Y-85081006D01*
X53057200Y-85081006D01*
X53076364Y-85312297D01*
X53076366Y-85312308D01*
X53133342Y-85537300D01*
X53226575Y-85749848D01*
X53257908Y-85797807D01*
X53278096Y-85864697D01*
X53258915Y-85931882D01*
X53228411Y-85964894D01*
X53204952Y-85982455D01*
X53118706Y-86097664D01*
X53118702Y-86097671D01*
X53068408Y-86232517D01*
X53062001Y-86292116D01*
X53062001Y-86292123D01*
X53062000Y-86292135D01*
X53062000Y-88187870D01*
X53062001Y-88187876D01*
X53068408Y-88247483D01*
X53118702Y-88382328D01*
X53118706Y-88382335D01*
X53204952Y-88497544D01*
X53204955Y-88497547D01*
X53320164Y-88583793D01*
X53320171Y-88583797D01*
X53455017Y-88634091D01*
X53455016Y-88634091D01*
X53461944Y-88634835D01*
X53514627Y-88640500D01*
X55410372Y-88640499D01*
X55469983Y-88634091D01*
X55604831Y-88583796D01*
X55720046Y-88497546D01*
X55806296Y-88382331D01*
X55856591Y-88247483D01*
X55863000Y-88187873D01*
X55862999Y-86292128D01*
X55856591Y-86232517D01*
X55856398Y-86232000D01*
X55806297Y-86097671D01*
X55806293Y-86097664D01*
X55720047Y-85982455D01*
X55720046Y-85982454D01*
X55696587Y-85964892D01*
X55654717Y-85908958D01*
X55649734Y-85839266D01*
X55667093Y-85797804D01*
X55698423Y-85749851D01*
X55713158Y-85716260D01*
X55791657Y-85537300D01*
X55848634Y-85312305D01*
X55857744Y-85202364D01*
X55867800Y-85081006D01*
X55867800Y-85080993D01*
X55848635Y-84849702D01*
X55848633Y-84849691D01*
X55791657Y-84624699D01*
X55698424Y-84412151D01*
X55571483Y-84217852D01*
X55571480Y-84217849D01*
X55571479Y-84217847D01*
X55449628Y-84085480D01*
X55418707Y-84022828D01*
X55426567Y-83953402D01*
X55449627Y-83917520D01*
X55571479Y-83785153D01*
X55698424Y-83590849D01*
X55791657Y-83378300D01*
X55848634Y-83153305D01*
X55848635Y-83153297D01*
X55867800Y-82922006D01*
X55867800Y-82921993D01*
X55848635Y-82690702D01*
X55848633Y-82690691D01*
X55791657Y-82465699D01*
X55698424Y-82253151D01*
X55571483Y-82058852D01*
X55571480Y-82058849D01*
X55571479Y-82058847D01*
X55449628Y-81926480D01*
X55418707Y-81863828D01*
X55426567Y-81794402D01*
X55449627Y-81758520D01*
X55571479Y-81626153D01*
X55698424Y-81431849D01*
X55791657Y-81219300D01*
X55848634Y-80994305D01*
X55851973Y-80954008D01*
X55867800Y-80763006D01*
X55867800Y-80762993D01*
X55848635Y-80531702D01*
X55848633Y-80531691D01*
X55791657Y-80306699D01*
X55698424Y-80094151D01*
X55571483Y-79899852D01*
X55571480Y-79899849D01*
X55571479Y-79899847D01*
X55414284Y-79729087D01*
X55414279Y-79729083D01*
X55414277Y-79729081D01*
X55231134Y-79586535D01*
X55231128Y-79586531D01*
X55027004Y-79476064D01*
X55026995Y-79476061D01*
X54807484Y-79400702D01*
X54622032Y-79369756D01*
X54578549Y-79362500D01*
X54346451Y-79362500D01*
X54302968Y-79369756D01*
X54117515Y-79400702D01*
X53898004Y-79476061D01*
X53897995Y-79476064D01*
X53693871Y-79586531D01*
X53693865Y-79586535D01*
X53510722Y-79729081D01*
X53510719Y-79729084D01*
X53510716Y-79729086D01*
X53510716Y-79729087D01*
X53469287Y-79774091D01*
X53353516Y-79899852D01*
X53226575Y-80094151D01*
X53133342Y-80306699D01*
X53076366Y-80531691D01*
X53076364Y-80531702D01*
X53057200Y-80762993D01*
X53057200Y-80763006D01*
X53076364Y-80994297D01*
X53076366Y-80994308D01*
X53133342Y-81219300D01*
X53226575Y-81431848D01*
X53270118Y-81498495D01*
X53353521Y-81626153D01*
X53404478Y-81681508D01*
X53475370Y-81758518D01*
X53506292Y-81821173D01*
X53498431Y-81890599D01*
X53475370Y-81926482D01*
X53353519Y-82058849D01*
X53226575Y-82253151D01*
X53133342Y-82465699D01*
X53076366Y-82690691D01*
X53076364Y-82690702D01*
X53057200Y-82921993D01*
X53057200Y-82922006D01*
X53076364Y-83153297D01*
X53076366Y-83153308D01*
X53133342Y-83378300D01*
X53226575Y-83590848D01*
X53353516Y-83785147D01*
X53353519Y-83785151D01*
X53353521Y-83785153D01*
X53475370Y-83917517D01*
X53506292Y-83980171D01*
X53498432Y-84049597D01*
X53475371Y-84085481D01*
X53435450Y-84128848D01*
X53353521Y-84217847D01*
X53353519Y-84217848D01*
X53353516Y-84217853D01*
X53226575Y-84412151D01*
X53133342Y-84624699D01*
X53076366Y-84849691D01*
X53076364Y-84849702D01*
X53057200Y-85080993D01*
X53057200Y-85081006D01*
X34000500Y-85081006D01*
X34000500Y-78000000D01*
X64794357Y-78000000D01*
X64814884Y-78221535D01*
X64814885Y-78221537D01*
X64875769Y-78435523D01*
X64875775Y-78435538D01*
X64974938Y-78634683D01*
X64974943Y-78634691D01*
X65109020Y-78812238D01*
X65273437Y-78962123D01*
X65273439Y-78962125D01*
X65462595Y-79079245D01*
X65462596Y-79079245D01*
X65462599Y-79079247D01*
X65670060Y-79159618D01*
X65888757Y-79200500D01*
X65888759Y-79200500D01*
X66111241Y-79200500D01*
X66111243Y-79200500D01*
X66329940Y-79159618D01*
X66537401Y-79079247D01*
X66726562Y-78962124D01*
X66890981Y-78812236D01*
X67025058Y-78634689D01*
X67124229Y-78435528D01*
X67177016Y-78250000D01*
X69903505Y-78250000D01*
X69956239Y-78435349D01*
X70055368Y-78634425D01*
X70189391Y-78811900D01*
X70353738Y-78961721D01*
X70542820Y-79078797D01*
X70542822Y-79078798D01*
X70750195Y-79159135D01*
X70830000Y-79174052D01*
X70830000Y-78457898D01*
X70849685Y-78390859D01*
X70902489Y-78345104D01*
X70971647Y-78335160D01*
X70994259Y-78340615D01*
X71021595Y-78350000D01*
X71109004Y-78350000D01*
X71109005Y-78350000D01*
X71185590Y-78337220D01*
X71254955Y-78345602D01*
X71308777Y-78390155D01*
X71329968Y-78456733D01*
X71330000Y-78459529D01*
X71330000Y-79174052D01*
X71409804Y-79159135D01*
X71617177Y-79078798D01*
X71617179Y-79078797D01*
X71806261Y-78961721D01*
X71970608Y-78811900D01*
X72104631Y-78634425D01*
X72203760Y-78435349D01*
X72256495Y-78250000D01*
X71542047Y-78250000D01*
X71475008Y-78230315D01*
X71429253Y-78177511D01*
X71419309Y-78108353D01*
X71421842Y-78095557D01*
X71423979Y-78087114D01*
X71423982Y-78087108D01*
X71433628Y-77970698D01*
X71416849Y-77904438D01*
X71419475Y-77834619D01*
X71459431Y-77777302D01*
X71524032Y-77750686D01*
X71537055Y-77750000D01*
X72256495Y-77750000D01*
X72203760Y-77564650D01*
X72104631Y-77365574D01*
X71970608Y-77188099D01*
X71806261Y-77038278D01*
X71617179Y-76921202D01*
X71617177Y-76921201D01*
X71409799Y-76840864D01*
X71330000Y-76825946D01*
X71330000Y-77542101D01*
X71310315Y-77609140D01*
X71257511Y-77654895D01*
X71188353Y-77664839D01*
X71165738Y-77659383D01*
X71138406Y-77650000D01*
X71138405Y-77650000D01*
X71050995Y-77650000D01*
X71050994Y-77650000D01*
X70974408Y-77662779D01*
X70905043Y-77654396D01*
X70851222Y-77609843D01*
X70830031Y-77543264D01*
X70830000Y-77540470D01*
X70830000Y-76825946D01*
X70750200Y-76840864D01*
X70542822Y-76921201D01*
X70542820Y-76921202D01*
X70353738Y-77038278D01*
X70189391Y-77188099D01*
X70055368Y-77365574D01*
X69956239Y-77564650D01*
X69903505Y-77750000D01*
X70617953Y-77750000D01*
X70684992Y-77769685D01*
X70730747Y-77822489D01*
X70740691Y-77891647D01*
X70738158Y-77904443D01*
X70736017Y-77912896D01*
X70726371Y-78029299D01*
X70726371Y-78029302D01*
X70726372Y-78029302D01*
X70741010Y-78087108D01*
X70743151Y-78095560D01*
X70740525Y-78165381D01*
X70700569Y-78222698D01*
X70635968Y-78249314D01*
X70622945Y-78250000D01*
X69903505Y-78250000D01*
X67177016Y-78250000D01*
X67185115Y-78221536D01*
X67205643Y-78000000D01*
X67204891Y-77991889D01*
X67185115Y-77778464D01*
X67185114Y-77778462D01*
X67181714Y-77766513D01*
X67124229Y-77564472D01*
X67124224Y-77564461D01*
X67025061Y-77365316D01*
X67025056Y-77365308D01*
X66890979Y-77187761D01*
X66726562Y-77037876D01*
X66726560Y-77037874D01*
X66537404Y-76920754D01*
X66537398Y-76920752D01*
X66329940Y-76840382D01*
X66111243Y-76799500D01*
X65888757Y-76799500D01*
X65670060Y-76840382D01*
X65552544Y-76885908D01*
X65462601Y-76920752D01*
X65462595Y-76920754D01*
X65273439Y-77037874D01*
X65273437Y-77037876D01*
X65109020Y-77187761D01*
X64974943Y-77365308D01*
X64974938Y-77365316D01*
X64875775Y-77564461D01*
X64875769Y-77564476D01*
X64814885Y-77778462D01*
X64814884Y-77778464D01*
X64794357Y-77999999D01*
X64794357Y-78000000D01*
X34000500Y-78000000D01*
X34000500Y-73000000D01*
X36644341Y-73000000D01*
X36664936Y-73235403D01*
X36664938Y-73235413D01*
X36726094Y-73463655D01*
X36726096Y-73463659D01*
X36726097Y-73463663D01*
X36761913Y-73540470D01*
X36825964Y-73677828D01*
X36825965Y-73677830D01*
X36961505Y-73871402D01*
X37128597Y-74038494D01*
X37322169Y-74174034D01*
X37322171Y-74174035D01*
X37536337Y-74273903D01*
X37764592Y-74335063D01*
X37941034Y-74350500D01*
X38058966Y-74350500D01*
X38235408Y-74335063D01*
X38463663Y-74273903D01*
X38677829Y-74174035D01*
X38871401Y-74038495D01*
X38909896Y-74000000D01*
X64794357Y-74000000D01*
X64814884Y-74221535D01*
X64814885Y-74221537D01*
X64875769Y-74435523D01*
X64875775Y-74435538D01*
X64974938Y-74634683D01*
X64974943Y-74634691D01*
X65109020Y-74812238D01*
X65273437Y-74962123D01*
X65273439Y-74962125D01*
X65462595Y-75079245D01*
X65462596Y-75079245D01*
X65462599Y-75079247D01*
X65670060Y-75159618D01*
X65888757Y-75200500D01*
X65888759Y-75200500D01*
X66111241Y-75200500D01*
X66111243Y-75200500D01*
X66329940Y-75159618D01*
X66537401Y-75079247D01*
X66726562Y-74962124D01*
X66890981Y-74812236D01*
X67025058Y-74634689D01*
X67124229Y-74435528D01*
X67177016Y-74250000D01*
X69903505Y-74250000D01*
X69956239Y-74435349D01*
X70055368Y-74634425D01*
X70189391Y-74811900D01*
X70353738Y-74961721D01*
X70542820Y-75078797D01*
X70542822Y-75078798D01*
X70750195Y-75159135D01*
X70830000Y-75174052D01*
X70830000Y-74457898D01*
X70849685Y-74390859D01*
X70902489Y-74345104D01*
X70971647Y-74335160D01*
X70994259Y-74340615D01*
X71021595Y-74350000D01*
X71109004Y-74350000D01*
X71109005Y-74350000D01*
X71185590Y-74337220D01*
X71254955Y-74345602D01*
X71308777Y-74390155D01*
X71329968Y-74456733D01*
X71330000Y-74459529D01*
X71330000Y-75174052D01*
X71409804Y-75159135D01*
X71617177Y-75078798D01*
X71617179Y-75078797D01*
X71806261Y-74961721D01*
X71970608Y-74811900D01*
X72104631Y-74634425D01*
X72203760Y-74435349D01*
X72256495Y-74250000D01*
X71542047Y-74250000D01*
X71475008Y-74230315D01*
X71429253Y-74177511D01*
X71419309Y-74108353D01*
X71421842Y-74095557D01*
X71423979Y-74087114D01*
X71423982Y-74087108D01*
X71433628Y-73970698D01*
X71416849Y-73904438D01*
X71417096Y-73897870D01*
X106649500Y-73897870D01*
X106649501Y-73897876D01*
X106655908Y-73957483D01*
X106706202Y-74092328D01*
X106706206Y-74092335D01*
X106792452Y-74207544D01*
X106792455Y-74207547D01*
X106907664Y-74293793D01*
X106907671Y-74293797D01*
X107042517Y-74344091D01*
X107042516Y-74344091D01*
X107049444Y-74344835D01*
X107102127Y-74350500D01*
X108897872Y-74350499D01*
X108957483Y-74344091D01*
X109092331Y-74293796D01*
X109207546Y-74207546D01*
X109293796Y-74092331D01*
X109344091Y-73957483D01*
X109350500Y-73897873D01*
X109350500Y-73897870D01*
X112649500Y-73897870D01*
X112649501Y-73897876D01*
X112655908Y-73957483D01*
X112706202Y-74092328D01*
X112706206Y-74092335D01*
X112792452Y-74207544D01*
X112792455Y-74207547D01*
X112907664Y-74293793D01*
X112907671Y-74293797D01*
X113042517Y-74344091D01*
X113042516Y-74344091D01*
X113049444Y-74344835D01*
X113102127Y-74350500D01*
X114897872Y-74350499D01*
X114957483Y-74344091D01*
X115092331Y-74293796D01*
X115207546Y-74207546D01*
X115293796Y-74092331D01*
X115344091Y-73957483D01*
X115350500Y-73897873D01*
X115350499Y-73000000D01*
X128644341Y-73000000D01*
X128664936Y-73235403D01*
X128664938Y-73235413D01*
X128726094Y-73463655D01*
X128726096Y-73463659D01*
X128726097Y-73463663D01*
X128761913Y-73540470D01*
X128825964Y-73677828D01*
X128825965Y-73677830D01*
X128961505Y-73871402D01*
X129128597Y-74038494D01*
X129322169Y-74174034D01*
X129322171Y-74174035D01*
X129536337Y-74273903D01*
X129764592Y-74335063D01*
X129941034Y-74350500D01*
X130058966Y-74350500D01*
X130235408Y-74335063D01*
X130463663Y-74273903D01*
X130677829Y-74174035D01*
X130871401Y-74038495D01*
X131038495Y-73871401D01*
X131174035Y-73677830D01*
X131273903Y-73463663D01*
X131335063Y-73235408D01*
X131355659Y-73000000D01*
X131335063Y-72764592D01*
X131273903Y-72536337D01*
X131174035Y-72322171D01*
X131174034Y-72322169D01*
X131038494Y-72128597D01*
X130871402Y-71961505D01*
X130677830Y-71825965D01*
X130677828Y-71825964D01*
X130570745Y-71776030D01*
X130463663Y-71726097D01*
X130463659Y-71726096D01*
X130463655Y-71726094D01*
X130235413Y-71664938D01*
X130235403Y-71664936D01*
X130058966Y-71649500D01*
X129941034Y-71649500D01*
X129764596Y-71664936D01*
X129764586Y-71664938D01*
X129536344Y-71726094D01*
X129536335Y-71726098D01*
X129322171Y-71825964D01*
X129322169Y-71825965D01*
X129128597Y-71961505D01*
X128961506Y-72128597D01*
X128961501Y-72128604D01*
X128825967Y-72322165D01*
X128825965Y-72322169D01*
X128726098Y-72536335D01*
X128726094Y-72536344D01*
X128664938Y-72764586D01*
X128664936Y-72764596D01*
X128644341Y-72999999D01*
X128644341Y-73000000D01*
X115350499Y-73000000D01*
X115350499Y-72102128D01*
X115344091Y-72042517D01*
X115293796Y-71907669D01*
X115293795Y-71907668D01*
X115293793Y-71907664D01*
X115207547Y-71792455D01*
X115207544Y-71792452D01*
X115092335Y-71706206D01*
X115092328Y-71706202D01*
X114957482Y-71655908D01*
X114957483Y-71655908D01*
X114897883Y-71649501D01*
X114897881Y-71649500D01*
X114897873Y-71649500D01*
X114897864Y-71649500D01*
X113102129Y-71649500D01*
X113102123Y-71649501D01*
X113042516Y-71655908D01*
X112907671Y-71706202D01*
X112907664Y-71706206D01*
X112792455Y-71792452D01*
X112792452Y-71792455D01*
X112706206Y-71907664D01*
X112706202Y-71907671D01*
X112655908Y-72042517D01*
X112649501Y-72102116D01*
X112649501Y-72102123D01*
X112649500Y-72102135D01*
X112649500Y-73897870D01*
X109350500Y-73897870D01*
X109350499Y-72102128D01*
X109344091Y-72042517D01*
X109293796Y-71907669D01*
X109293795Y-71907668D01*
X109293793Y-71907664D01*
X109207547Y-71792455D01*
X109207544Y-71792452D01*
X109092335Y-71706206D01*
X109092328Y-71706202D01*
X108957482Y-71655908D01*
X108957483Y-71655908D01*
X108897883Y-71649501D01*
X108897881Y-71649500D01*
X108897873Y-71649500D01*
X108897864Y-71649500D01*
X107102129Y-71649500D01*
X107102123Y-71649501D01*
X107042516Y-71655908D01*
X106907671Y-71706202D01*
X106907664Y-71706206D01*
X106792455Y-71792452D01*
X106792452Y-71792455D01*
X106706206Y-71907664D01*
X106706202Y-71907671D01*
X106655908Y-72042517D01*
X106649501Y-72102116D01*
X106649501Y-72102123D01*
X106649500Y-72102135D01*
X106649500Y-73897870D01*
X71417096Y-73897870D01*
X71419475Y-73834619D01*
X71459431Y-73777302D01*
X71524032Y-73750686D01*
X71537055Y-73750000D01*
X72256495Y-73750000D01*
X72203760Y-73564650D01*
X72104631Y-73365574D01*
X71970608Y-73188099D01*
X71806261Y-73038278D01*
X71617179Y-72921202D01*
X71617177Y-72921201D01*
X71409799Y-72840864D01*
X71330000Y-72825946D01*
X71330000Y-73542101D01*
X71310315Y-73609140D01*
X71257511Y-73654895D01*
X71188353Y-73664839D01*
X71165738Y-73659383D01*
X71138406Y-73650000D01*
X71138405Y-73650000D01*
X71050995Y-73650000D01*
X71050994Y-73650000D01*
X70974408Y-73662779D01*
X70905043Y-73654396D01*
X70851222Y-73609843D01*
X70830031Y-73543264D01*
X70830000Y-73540470D01*
X70830000Y-72825946D01*
X70750200Y-72840864D01*
X70542822Y-72921201D01*
X70542820Y-72921202D01*
X70353738Y-73038278D01*
X70189391Y-73188099D01*
X70055368Y-73365574D01*
X69956239Y-73564650D01*
X69903505Y-73750000D01*
X70617953Y-73750000D01*
X70684992Y-73769685D01*
X70730747Y-73822489D01*
X70740691Y-73891647D01*
X70738158Y-73904443D01*
X70736017Y-73912896D01*
X70726371Y-74029299D01*
X70726371Y-74029302D01*
X70726372Y-74029302D01*
X70742332Y-74092328D01*
X70743151Y-74095560D01*
X70740525Y-74165381D01*
X70700569Y-74222698D01*
X70635968Y-74249314D01*
X70622945Y-74250000D01*
X69903505Y-74250000D01*
X67177016Y-74250000D01*
X67185115Y-74221536D01*
X67205643Y-74000000D01*
X67196788Y-73904443D01*
X67185115Y-73778464D01*
X67185114Y-73778462D01*
X67156481Y-73677828D01*
X67124229Y-73564472D01*
X67113669Y-73543264D01*
X67025061Y-73365316D01*
X67025056Y-73365308D01*
X66890979Y-73187761D01*
X66726562Y-73037876D01*
X66726560Y-73037874D01*
X66537404Y-72920754D01*
X66537398Y-72920752D01*
X66329940Y-72840382D01*
X66111243Y-72799500D01*
X65888757Y-72799500D01*
X65670060Y-72840382D01*
X65538864Y-72891207D01*
X65462601Y-72920752D01*
X65462595Y-72920754D01*
X65273439Y-73037874D01*
X65273437Y-73037876D01*
X65109020Y-73187761D01*
X64974943Y-73365308D01*
X64974938Y-73365316D01*
X64875775Y-73564461D01*
X64875769Y-73564476D01*
X64814885Y-73778462D01*
X64814884Y-73778464D01*
X64794357Y-73999999D01*
X64794357Y-74000000D01*
X38909896Y-74000000D01*
X39038495Y-73871401D01*
X39174035Y-73677830D01*
X39273903Y-73463663D01*
X39335063Y-73235408D01*
X39355659Y-73000000D01*
X39335063Y-72764592D01*
X39273903Y-72536337D01*
X39174035Y-72322171D01*
X39174034Y-72322169D01*
X39038494Y-72128597D01*
X38871402Y-71961505D01*
X38677830Y-71825965D01*
X38677828Y-71825964D01*
X38570745Y-71776030D01*
X38463663Y-71726097D01*
X38463659Y-71726096D01*
X38463655Y-71726094D01*
X38235413Y-71664938D01*
X38235403Y-71664936D01*
X38058966Y-71649500D01*
X37941034Y-71649500D01*
X37764596Y-71664936D01*
X37764586Y-71664938D01*
X37536344Y-71726094D01*
X37536335Y-71726098D01*
X37322171Y-71825964D01*
X37322169Y-71825965D01*
X37128597Y-71961505D01*
X36961506Y-72128597D01*
X36961501Y-72128604D01*
X36825967Y-72322165D01*
X36825965Y-72322169D01*
X36726098Y-72536335D01*
X36726094Y-72536344D01*
X36664938Y-72764586D01*
X36664936Y-72764596D01*
X36644341Y-72999999D01*
X36644341Y-73000000D01*
X34000500Y-73000000D01*
X34000500Y-69744500D01*
X34020185Y-69677461D01*
X34072989Y-69631706D01*
X34124500Y-69620500D01*
X133875500Y-69620500D01*
X133942539Y-69640185D01*
G37*
%TD.AperFunction*%
%TD*%
M02*
