%TF.GenerationSoftware,KiCad,Pcbnew,7.0.7*%
%TF.CreationDate,2023-10-01T22:00:11-07:00*%
%TF.ProjectId,v1,76312e6b-6963-4616-945f-706362585858,0*%
%TF.SameCoordinates,Original*%
%TF.FileFunction,Legend,Top*%
%TF.FilePolarity,Positive*%
%FSLAX46Y46*%
G04 Gerber Fmt 4.6, Leading zero omitted, Abs format (unit mm)*
G04 Created by KiCad (PCBNEW 7.0.7) date 2023-10-01 22:00:11*
%MOMM*%
%LPD*%
G01*
G04 APERTURE LIST*
%ADD10C,0.150000*%
%ADD11C,0.120000*%
%ADD12C,0.127000*%
%ADD13C,0.200000*%
G04 APERTURE END LIST*
D10*
X36666666Y-112254819D02*
X36333333Y-111778628D01*
X36095238Y-112254819D02*
X36095238Y-111254819D01*
X36095238Y-111254819D02*
X36476190Y-111254819D01*
X36476190Y-111254819D02*
X36571428Y-111302438D01*
X36571428Y-111302438D02*
X36619047Y-111350057D01*
X36619047Y-111350057D02*
X36666666Y-111445295D01*
X36666666Y-111445295D02*
X36666666Y-111588152D01*
X36666666Y-111588152D02*
X36619047Y-111683390D01*
X36619047Y-111683390D02*
X36571428Y-111731009D01*
X36571428Y-111731009D02*
X36476190Y-111778628D01*
X36476190Y-111778628D02*
X36095238Y-111778628D01*
X37095238Y-111731009D02*
X37428571Y-111731009D01*
X37571428Y-112254819D02*
X37095238Y-112254819D01*
X37095238Y-112254819D02*
X37095238Y-111254819D01*
X37095238Y-111254819D02*
X37571428Y-111254819D01*
X38333333Y-111731009D02*
X38000000Y-111731009D01*
X38000000Y-112254819D02*
X38000000Y-111254819D01*
X38000000Y-111254819D02*
X38476190Y-111254819D01*
X39000000Y-111254819D02*
X39000000Y-111492914D01*
X38761905Y-111397676D02*
X39000000Y-111492914D01*
X39000000Y-111492914D02*
X39238095Y-111397676D01*
X38857143Y-111683390D02*
X39000000Y-111492914D01*
X39000000Y-111492914D02*
X39142857Y-111683390D01*
X39761905Y-111254819D02*
X39761905Y-111492914D01*
X39523810Y-111397676D02*
X39761905Y-111492914D01*
X39761905Y-111492914D02*
X40000000Y-111397676D01*
X39619048Y-111683390D02*
X39761905Y-111492914D01*
X39761905Y-111492914D02*
X39904762Y-111683390D01*
X128666666Y-112254819D02*
X128333333Y-111778628D01*
X128095238Y-112254819D02*
X128095238Y-111254819D01*
X128095238Y-111254819D02*
X128476190Y-111254819D01*
X128476190Y-111254819D02*
X128571428Y-111302438D01*
X128571428Y-111302438D02*
X128619047Y-111350057D01*
X128619047Y-111350057D02*
X128666666Y-111445295D01*
X128666666Y-111445295D02*
X128666666Y-111588152D01*
X128666666Y-111588152D02*
X128619047Y-111683390D01*
X128619047Y-111683390D02*
X128571428Y-111731009D01*
X128571428Y-111731009D02*
X128476190Y-111778628D01*
X128476190Y-111778628D02*
X128095238Y-111778628D01*
X129095238Y-111731009D02*
X129428571Y-111731009D01*
X129571428Y-112254819D02*
X129095238Y-112254819D01*
X129095238Y-112254819D02*
X129095238Y-111254819D01*
X129095238Y-111254819D02*
X129571428Y-111254819D01*
X130333333Y-111731009D02*
X130000000Y-111731009D01*
X130000000Y-112254819D02*
X130000000Y-111254819D01*
X130000000Y-111254819D02*
X130476190Y-111254819D01*
X131000000Y-111254819D02*
X131000000Y-111492914D01*
X130761905Y-111397676D02*
X131000000Y-111492914D01*
X131000000Y-111492914D02*
X131238095Y-111397676D01*
X130857143Y-111683390D02*
X131000000Y-111492914D01*
X131000000Y-111492914D02*
X131142857Y-111683390D01*
X131761905Y-111254819D02*
X131761905Y-111492914D01*
X131523810Y-111397676D02*
X131761905Y-111492914D01*
X131761905Y-111492914D02*
X132000000Y-111397676D01*
X131619048Y-111683390D02*
X131761905Y-111492914D01*
X131761905Y-111492914D02*
X131904762Y-111683390D01*
X123666666Y-73454819D02*
X123333333Y-72978628D01*
X123095238Y-73454819D02*
X123095238Y-72454819D01*
X123095238Y-72454819D02*
X123476190Y-72454819D01*
X123476190Y-72454819D02*
X123571428Y-72502438D01*
X123571428Y-72502438D02*
X123619047Y-72550057D01*
X123619047Y-72550057D02*
X123666666Y-72645295D01*
X123666666Y-72645295D02*
X123666666Y-72788152D01*
X123666666Y-72788152D02*
X123619047Y-72883390D01*
X123619047Y-72883390D02*
X123571428Y-72931009D01*
X123571428Y-72931009D02*
X123476190Y-72978628D01*
X123476190Y-72978628D02*
X123095238Y-72978628D01*
X124095238Y-72931009D02*
X124428571Y-72931009D01*
X124571428Y-73454819D02*
X124095238Y-73454819D01*
X124095238Y-73454819D02*
X124095238Y-72454819D01*
X124095238Y-72454819D02*
X124571428Y-72454819D01*
X125333333Y-72931009D02*
X125000000Y-72931009D01*
X125000000Y-73454819D02*
X125000000Y-72454819D01*
X125000000Y-72454819D02*
X125476190Y-72454819D01*
X126000000Y-72454819D02*
X126000000Y-72692914D01*
X125761905Y-72597676D02*
X126000000Y-72692914D01*
X126000000Y-72692914D02*
X126238095Y-72597676D01*
X125857143Y-72883390D02*
X126000000Y-72692914D01*
X126000000Y-72692914D02*
X126142857Y-72883390D01*
X126761905Y-72454819D02*
X126761905Y-72692914D01*
X126523810Y-72597676D02*
X126761905Y-72692914D01*
X126761905Y-72692914D02*
X127000000Y-72597676D01*
X126619048Y-72883390D02*
X126761905Y-72692914D01*
X126761905Y-72692914D02*
X126904762Y-72883390D01*
X41666666Y-73454819D02*
X41333333Y-72978628D01*
X41095238Y-73454819D02*
X41095238Y-72454819D01*
X41095238Y-72454819D02*
X41476190Y-72454819D01*
X41476190Y-72454819D02*
X41571428Y-72502438D01*
X41571428Y-72502438D02*
X41619047Y-72550057D01*
X41619047Y-72550057D02*
X41666666Y-72645295D01*
X41666666Y-72645295D02*
X41666666Y-72788152D01*
X41666666Y-72788152D02*
X41619047Y-72883390D01*
X41619047Y-72883390D02*
X41571428Y-72931009D01*
X41571428Y-72931009D02*
X41476190Y-72978628D01*
X41476190Y-72978628D02*
X41095238Y-72978628D01*
X42095238Y-72931009D02*
X42428571Y-72931009D01*
X42571428Y-73454819D02*
X42095238Y-73454819D01*
X42095238Y-73454819D02*
X42095238Y-72454819D01*
X42095238Y-72454819D02*
X42571428Y-72454819D01*
X43333333Y-72931009D02*
X43000000Y-72931009D01*
X43000000Y-73454819D02*
X43000000Y-72454819D01*
X43000000Y-72454819D02*
X43476190Y-72454819D01*
X44000000Y-72454819D02*
X44000000Y-72692914D01*
X43761905Y-72597676D02*
X44000000Y-72692914D01*
X44000000Y-72692914D02*
X44238095Y-72597676D01*
X43857143Y-72883390D02*
X44000000Y-72692914D01*
X44000000Y-72692914D02*
X44142857Y-72883390D01*
X44761905Y-72454819D02*
X44761905Y-72692914D01*
X44523810Y-72597676D02*
X44761905Y-72692914D01*
X44761905Y-72692914D02*
X45000000Y-72597676D01*
X44619048Y-72883390D02*
X44761905Y-72692914D01*
X44761905Y-72692914D02*
X44904762Y-72883390D01*
X105144819Y-78563333D02*
X105859104Y-78563333D01*
X105859104Y-78563333D02*
X106001961Y-78610952D01*
X106001961Y-78610952D02*
X106097200Y-78706190D01*
X106097200Y-78706190D02*
X106144819Y-78849047D01*
X106144819Y-78849047D02*
X106144819Y-78944285D01*
X105240057Y-78134761D02*
X105192438Y-78087142D01*
X105192438Y-78087142D02*
X105144819Y-77991904D01*
X105144819Y-77991904D02*
X105144819Y-77753809D01*
X105144819Y-77753809D02*
X105192438Y-77658571D01*
X105192438Y-77658571D02*
X105240057Y-77610952D01*
X105240057Y-77610952D02*
X105335295Y-77563333D01*
X105335295Y-77563333D02*
X105430533Y-77563333D01*
X105430533Y-77563333D02*
X105573390Y-77610952D01*
X105573390Y-77610952D02*
X106144819Y-78182380D01*
X106144819Y-78182380D02*
X106144819Y-77563333D01*
X68373333Y-76534819D02*
X68040000Y-76058628D01*
X67801905Y-76534819D02*
X67801905Y-75534819D01*
X67801905Y-75534819D02*
X68182857Y-75534819D01*
X68182857Y-75534819D02*
X68278095Y-75582438D01*
X68278095Y-75582438D02*
X68325714Y-75630057D01*
X68325714Y-75630057D02*
X68373333Y-75725295D01*
X68373333Y-75725295D02*
X68373333Y-75868152D01*
X68373333Y-75868152D02*
X68325714Y-75963390D01*
X68325714Y-75963390D02*
X68278095Y-76011009D01*
X68278095Y-76011009D02*
X68182857Y-76058628D01*
X68182857Y-76058628D02*
X67801905Y-76058628D01*
X69325714Y-76534819D02*
X68754286Y-76534819D01*
X69040000Y-76534819D02*
X69040000Y-75534819D01*
X69040000Y-75534819D02*
X68944762Y-75677676D01*
X68944762Y-75677676D02*
X68849524Y-75772914D01*
X68849524Y-75772914D02*
X68754286Y-75820533D01*
X78320833Y-72610866D02*
X79120833Y-72610866D01*
X78720833Y-74010866D02*
X78720833Y-72610866D01*
X80054167Y-73277533D02*
X80254167Y-73344200D01*
X80254167Y-73344200D02*
X80320833Y-73410866D01*
X80320833Y-73410866D02*
X80387500Y-73544200D01*
X80387500Y-73544200D02*
X80387500Y-73744200D01*
X80387500Y-73744200D02*
X80320833Y-73877533D01*
X80320833Y-73877533D02*
X80254167Y-73944200D01*
X80254167Y-73944200D02*
X80120833Y-74010866D01*
X80120833Y-74010866D02*
X79587500Y-74010866D01*
X79587500Y-74010866D02*
X79587500Y-72610866D01*
X79587500Y-72610866D02*
X80054167Y-72610866D01*
X80054167Y-72610866D02*
X80187500Y-72677533D01*
X80187500Y-72677533D02*
X80254167Y-72744200D01*
X80254167Y-72744200D02*
X80320833Y-72877533D01*
X80320833Y-72877533D02*
X80320833Y-73010866D01*
X80320833Y-73010866D02*
X80254167Y-73144200D01*
X80254167Y-73144200D02*
X80187500Y-73210866D01*
X80187500Y-73210866D02*
X80054167Y-73277533D01*
X80054167Y-73277533D02*
X79587500Y-73277533D01*
X81720833Y-74010866D02*
X80920833Y-74010866D01*
X81320833Y-74010866D02*
X81320833Y-72610866D01*
X81320833Y-72610866D02*
X81187500Y-72810866D01*
X81187500Y-72810866D02*
X81054167Y-72944200D01*
X81054167Y-72944200D02*
X80920833Y-73010866D01*
X116666666Y-72454819D02*
X116666666Y-73169104D01*
X116666666Y-73169104D02*
X116619047Y-73311961D01*
X116619047Y-73311961D02*
X116523809Y-73407200D01*
X116523809Y-73407200D02*
X116380952Y-73454819D01*
X116380952Y-73454819D02*
X116285714Y-73454819D01*
X117571428Y-72788152D02*
X117571428Y-73454819D01*
X117333333Y-72407200D02*
X117095238Y-73121485D01*
X117095238Y-73121485D02*
X117714285Y-73121485D01*
X129666666Y-74604819D02*
X129666666Y-75319104D01*
X129666666Y-75319104D02*
X129619047Y-75461961D01*
X129619047Y-75461961D02*
X129523809Y-75557200D01*
X129523809Y-75557200D02*
X129380952Y-75604819D01*
X129380952Y-75604819D02*
X129285714Y-75604819D01*
X130666666Y-75604819D02*
X130095238Y-75604819D01*
X130380952Y-75604819D02*
X130380952Y-74604819D01*
X130380952Y-74604819D02*
X130285714Y-74747676D01*
X130285714Y-74747676D02*
X130190476Y-74842914D01*
X130190476Y-74842914D02*
X130095238Y-74890533D01*
X68373333Y-72534819D02*
X68040000Y-72058628D01*
X67801905Y-72534819D02*
X67801905Y-71534819D01*
X67801905Y-71534819D02*
X68182857Y-71534819D01*
X68182857Y-71534819D02*
X68278095Y-71582438D01*
X68278095Y-71582438D02*
X68325714Y-71630057D01*
X68325714Y-71630057D02*
X68373333Y-71725295D01*
X68373333Y-71725295D02*
X68373333Y-71868152D01*
X68373333Y-71868152D02*
X68325714Y-71963390D01*
X68325714Y-71963390D02*
X68278095Y-72011009D01*
X68278095Y-72011009D02*
X68182857Y-72058628D01*
X68182857Y-72058628D02*
X67801905Y-72058628D01*
X68754286Y-71630057D02*
X68801905Y-71582438D01*
X68801905Y-71582438D02*
X68897143Y-71534819D01*
X68897143Y-71534819D02*
X69135238Y-71534819D01*
X69135238Y-71534819D02*
X69230476Y-71582438D01*
X69230476Y-71582438D02*
X69278095Y-71630057D01*
X69278095Y-71630057D02*
X69325714Y-71725295D01*
X69325714Y-71725295D02*
X69325714Y-71820533D01*
X69325714Y-71820533D02*
X69278095Y-71963390D01*
X69278095Y-71963390D02*
X68706667Y-72534819D01*
X68706667Y-72534819D02*
X69325714Y-72534819D01*
X50957319Y-84739594D02*
X49957319Y-84739594D01*
X49957319Y-84739594D02*
X49957319Y-84501499D01*
X49957319Y-84501499D02*
X50004938Y-84358642D01*
X50004938Y-84358642D02*
X50100176Y-84263404D01*
X50100176Y-84263404D02*
X50195414Y-84215785D01*
X50195414Y-84215785D02*
X50385890Y-84168166D01*
X50385890Y-84168166D02*
X50528747Y-84168166D01*
X50528747Y-84168166D02*
X50719223Y-84215785D01*
X50719223Y-84215785D02*
X50814461Y-84263404D01*
X50814461Y-84263404D02*
X50909700Y-84358642D01*
X50909700Y-84358642D02*
X50957319Y-84501499D01*
X50957319Y-84501499D02*
X50957319Y-84739594D01*
X50957319Y-83215785D02*
X50957319Y-83787213D01*
X50957319Y-83501499D02*
X49957319Y-83501499D01*
X49957319Y-83501499D02*
X50100176Y-83596737D01*
X50100176Y-83596737D02*
X50195414Y-83691975D01*
X50195414Y-83691975D02*
X50243033Y-83787213D01*
X104666666Y-72454819D02*
X104666666Y-73169104D01*
X104666666Y-73169104D02*
X104619047Y-73311961D01*
X104619047Y-73311961D02*
X104523809Y-73407200D01*
X104523809Y-73407200D02*
X104380952Y-73454819D01*
X104380952Y-73454819D02*
X104285714Y-73454819D01*
X105047619Y-72454819D02*
X105666666Y-72454819D01*
X105666666Y-72454819D02*
X105333333Y-72835771D01*
X105333333Y-72835771D02*
X105476190Y-72835771D01*
X105476190Y-72835771D02*
X105571428Y-72883390D01*
X105571428Y-72883390D02*
X105619047Y-72931009D01*
X105619047Y-72931009D02*
X105666666Y-73026247D01*
X105666666Y-73026247D02*
X105666666Y-73264342D01*
X105666666Y-73264342D02*
X105619047Y-73359580D01*
X105619047Y-73359580D02*
X105571428Y-73407200D01*
X105571428Y-73407200D02*
X105476190Y-73454819D01*
X105476190Y-73454819D02*
X105190476Y-73454819D01*
X105190476Y-73454819D02*
X105095238Y-73407200D01*
X105095238Y-73407200D02*
X105047619Y-73359580D01*
X50957319Y-94898594D02*
X49957319Y-94898594D01*
X49957319Y-94898594D02*
X49957319Y-94660499D01*
X49957319Y-94660499D02*
X50004938Y-94517642D01*
X50004938Y-94517642D02*
X50100176Y-94422404D01*
X50100176Y-94422404D02*
X50195414Y-94374785D01*
X50195414Y-94374785D02*
X50385890Y-94327166D01*
X50385890Y-94327166D02*
X50528747Y-94327166D01*
X50528747Y-94327166D02*
X50719223Y-94374785D01*
X50719223Y-94374785D02*
X50814461Y-94422404D01*
X50814461Y-94422404D02*
X50909700Y-94517642D01*
X50909700Y-94517642D02*
X50957319Y-94660499D01*
X50957319Y-94660499D02*
X50957319Y-94898594D01*
X50052557Y-93946213D02*
X50004938Y-93898594D01*
X50004938Y-93898594D02*
X49957319Y-93803356D01*
X49957319Y-93803356D02*
X49957319Y-93565261D01*
X49957319Y-93565261D02*
X50004938Y-93470023D01*
X50004938Y-93470023D02*
X50052557Y-93422404D01*
X50052557Y-93422404D02*
X50147795Y-93374785D01*
X50147795Y-93374785D02*
X50243033Y-93374785D01*
X50243033Y-93374785D02*
X50385890Y-93422404D01*
X50385890Y-93422404D02*
X50957319Y-93993832D01*
X50957319Y-93993832D02*
X50957319Y-93374785D01*
X49238095Y-112454819D02*
X49238095Y-113264342D01*
X49238095Y-113264342D02*
X49285714Y-113359580D01*
X49285714Y-113359580D02*
X49333333Y-113407200D01*
X49333333Y-113407200D02*
X49428571Y-113454819D01*
X49428571Y-113454819D02*
X49619047Y-113454819D01*
X49619047Y-113454819D02*
X49714285Y-113407200D01*
X49714285Y-113407200D02*
X49761904Y-113359580D01*
X49761904Y-113359580D02*
X49809523Y-113264342D01*
X49809523Y-113264342D02*
X49809523Y-112454819D01*
X50809523Y-113454819D02*
X50238095Y-113454819D01*
X50523809Y-113454819D02*
X50523809Y-112454819D01*
X50523809Y-112454819D02*
X50428571Y-112597676D01*
X50428571Y-112597676D02*
X50333333Y-112692914D01*
X50333333Y-112692914D02*
X50238095Y-112740533D01*
D11*
%TO.C,J2*%
X109730000Y-79560000D02*
X114870000Y-79560000D01*
X109730000Y-79560000D02*
X109730000Y-76900000D01*
X114870000Y-79560000D02*
X114870000Y-76900000D01*
X107130000Y-78230000D02*
X107130000Y-76900000D01*
X107130000Y-76900000D02*
X108460000Y-76900000D01*
X109730000Y-76900000D02*
X114870000Y-76900000D01*
%TO.C,R1*%
X66620000Y-77080000D02*
X70460000Y-77080000D01*
X66620000Y-78920000D02*
X70460000Y-78920000D01*
D12*
%TO.C,TB1*%
X75952500Y-74570000D02*
X93732500Y-74570000D01*
X75952500Y-117750000D02*
X75952500Y-74570000D01*
X93732500Y-74570000D02*
X93732500Y-117750000D01*
X93732500Y-117750000D02*
X75952500Y-117750000D01*
D13*
X74742500Y-78360000D02*
G75*
G03*
X74742500Y-78360000I-100000J0D01*
G01*
D12*
%TO.C,U2*%
X104725000Y-96720000D02*
X107875000Y-96720000D01*
X104725000Y-106520000D02*
X104725000Y-96720000D01*
X107875000Y-106520000D02*
X104725000Y-106520000D01*
X107875000Y-106790000D02*
X107875000Y-106520000D01*
X109755000Y-93620000D02*
X110375000Y-93620000D01*
X110375000Y-87320000D02*
X121275000Y-87320000D01*
X110375000Y-93620000D02*
X110375000Y-87320000D01*
X110975000Y-109520000D02*
X109755000Y-109520000D01*
X110975000Y-112720000D02*
X110975000Y-109520000D01*
X120675000Y-109520000D02*
X120675000Y-112720000D01*
X121275000Y-87320000D02*
X121275000Y-93620000D01*
X121275000Y-93620000D02*
X121905000Y-93620000D01*
X121905000Y-109520000D02*
X120675000Y-109520000D01*
X123775000Y-97520000D02*
X125325000Y-97520000D01*
X123775000Y-105620000D02*
X123775000Y-106740000D01*
X125325000Y-97520000D02*
X125325000Y-105620000D01*
X125325000Y-105620000D02*
X123775000Y-105620000D01*
D13*
X109875000Y-88270000D02*
G75*
G03*
X109875000Y-88270000I-100000J0D01*
G01*
D11*
%TO.C,J4*%
X115330000Y-71790000D02*
X115330000Y-71670000D01*
X115330000Y-71670000D02*
X112670000Y-71670000D01*
X114000000Y-74330000D02*
X112670000Y-74330000D01*
X112670000Y-74330000D02*
X112670000Y-73000000D01*
X112670000Y-71790000D02*
X112670000Y-71670000D01*
%TO.C,J1*%
X128670000Y-79190000D02*
X128670000Y-89410000D01*
X128670000Y-79190000D02*
X131330000Y-79190000D01*
X128670000Y-89410000D02*
X131330000Y-89410000D01*
X130000000Y-76590000D02*
X131330000Y-76590000D01*
X131330000Y-76590000D02*
X131330000Y-77920000D01*
X131330000Y-79190000D02*
X131330000Y-89410000D01*
%TO.C,R2*%
X66620000Y-73080000D02*
X70460000Y-73080000D01*
X66620000Y-74920000D02*
X70460000Y-74920000D01*
%TO.C,D1*%
X52917500Y-86561500D02*
X53382500Y-86561500D01*
X55542500Y-86561500D02*
X56007500Y-86561500D01*
X53381673Y-81213686D02*
G75*
G03*
X52917670Y-86561499I1080827J-2787814D01*
G01*
X53382072Y-81747022D02*
G75*
G03*
X53382500Y-86256183I1080428J-2254478D01*
G01*
X55542500Y-86256184D02*
G75*
G03*
X55542929Y-81747021I-1080000J2254684D01*
G01*
X56007330Y-86561499D02*
G75*
G03*
X55543327Y-81213686I-1544830J2559999D01*
G01*
%TO.C,J3*%
X109330000Y-71790000D02*
X109330000Y-71670000D01*
X109330000Y-71670000D02*
X106670000Y-71670000D01*
X108000000Y-74330000D02*
X106670000Y-74330000D01*
X106670000Y-74330000D02*
X106670000Y-73000000D01*
X106670000Y-71790000D02*
X106670000Y-71670000D01*
%TO.C,D2*%
X52917500Y-96720500D02*
X53382500Y-96720500D01*
X55542500Y-96720500D02*
X56007500Y-96720500D01*
X53381673Y-91372686D02*
G75*
G03*
X52917670Y-96720499I1080827J-2787814D01*
G01*
X53382072Y-91906022D02*
G75*
G03*
X53382500Y-96415183I1080428J-2254478D01*
G01*
X55542500Y-96415184D02*
G75*
G03*
X55542929Y-91906021I-1080000J2254684D01*
G01*
X56007330Y-96720499D02*
G75*
G03*
X55543327Y-91372686I-1544830J2559999D01*
G01*
%TO.C,U1*%
X42860000Y-101275000D02*
X42860000Y-101275000D01*
X42860000Y-101275000D02*
X72060000Y-101275000D01*
X42860000Y-116725000D02*
X42860000Y-101275000D01*
X43190000Y-101851000D02*
X43190000Y-101851000D01*
X43190000Y-101851000D02*
X48524000Y-101851000D01*
X43190000Y-112519000D02*
X43190000Y-101851000D01*
X43190000Y-112519000D02*
X43190000Y-112519000D01*
X43444000Y-104645000D02*
X43444000Y-104645000D01*
X45730000Y-102359000D02*
X45730000Y-104645000D01*
X45730000Y-104645000D02*
X43444000Y-104645000D01*
X48524000Y-101851000D02*
X48524000Y-112519000D01*
X48524000Y-112519000D02*
X43190000Y-112519000D01*
X72060000Y-101275000D02*
X72060000Y-116725000D01*
X72060000Y-116725000D02*
X42860000Y-116725000D01*
%TD*%
M02*
